<svg xmlns="http://www.w3.org/2000/svg" fill="currentColor" viewBox="-23 0 512 512" class="xfjz2zlx8aVp2KwXVJ9H"><path d="M367.664 34.137a23.54 23.54 0 0 0 1.149-18.102c-2.047-5.988-6.301-10.824-11.985-13.613-11.734-5.754-25.957-.895-31.715 10.836L301.207 61.98c-20.227-10.765-43.289-16.878-67.758-16.878s-47.531 6.113-67.758 16.878l-23.906-48.722c-5.758-11.73-19.984-16.594-31.715-10.836-5.683 2.789-9.937 7.621-11.984 13.613-2.047 5.988-1.64 12.418 1.148 18.098l28.145 57.355c-23.965 25.832-38.64 60.39-38.64 98.32a7.565 7.565 0 0 0 7.566 7.567h274.289a7.564 7.564 0 0 0 7.562-7.566c0-37.93-14.676-72.489-38.636-98.32zm-28.969-14.219c2.078-4.238 7.227-6 11.47-3.918 4.241 2.082 6 7.227 3.917 11.473L328.094 80.43a145 145 0 0 0-13.875-10.633zM116.735 16c4.242-2.082 9.39-.324 11.468 3.918l24.477 49.879c-4.84 3.27-9.477 6.82-13.88 10.637l-25.984-52.961c-2.086-4.246-.324-9.391 3.918-11.473m-12.65 166.246c3.93-67.945 60.45-122.02 129.364-122.02s125.434 54.075 129.363 122.02zM431.098 214.516c-19.739 0-35.797 16.058-35.797 35.8v121.008c0 19.742 16.058 35.801 35.797 35.801 19.742 0 35.8-16.059 35.8-35.8V250.315c0-19.742-16.058-35.8-35.8-35.8m20.675 156.808c0 11.403-9.273 20.676-20.675 20.676-11.399 0-20.672-9.273-20.672-20.676V250.316c0-11.402 9.273-20.675 20.672-20.675 11.402 0 20.675 9.273 20.675 20.675zM370.594 214.516h-39.328a7.564 7.564 0 0 0 0 15.125h31.765v178.492h-32.773a7.56 7.56 0 0 0-7.563 7.562v60.508c0 11.399-9.273 20.672-20.672 20.672-11.402 0-20.675-9.273-20.675-20.672v-60.508a7.56 7.56 0 0 0-7.563-7.562h-80.672a7.56 7.56 0 0 0-7.562 7.562v60.508c0 11.399-9.274 20.672-20.676 20.672-11.398 0-20.672-9.273-20.672-20.672v-60.508a7.56 7.56 0 0 0-7.562-7.562h-32.774V229.64h190.59a7.562 7.562 0 1 0 0-15.125H96.305a7.56 7.56 0 0 0-7.563 7.562v193.617a7.56 7.56 0 0 0 7.563 7.563h32.773v52.945c0 19.738 16.059 35.797 35.797 35.797 19.742 0 35.8-16.059 35.8-35.797v-52.945h65.548v52.945c0 19.738 16.058 35.797 35.8 35.797 19.739 0 35.797-16.059 35.797-35.797v-52.945h32.774a7.56 7.56 0 0 0 7.562-7.563V222.078a7.564 7.564 0 0 0-7.562-7.562M35.8 214.516c-19.741 0-35.8 16.058-35.8 35.8v121.008c0 19.742 16.059 35.801 35.8 35.801s35.798-16.059 35.798-35.8V250.315c0-19.742-16.059-35.8-35.797-35.8m20.673 156.808C56.473 382.727 47.199 392 35.8 392c-11.403 0-20.676-9.273-20.676-20.676V250.316c0-11.402 9.273-20.675 20.676-20.675 11.398 0 20.672 9.273 20.672 20.675zm0 0"></path><path d="M168.91 117.707c-13.066 0-23.7 10.633-23.7 23.7s10.634 23.698 23.7 23.698 23.7-10.632 23.7-23.699-10.633-23.699-23.7-23.699m0 32.27c-4.726 0-8.57-3.844-8.57-8.57s3.844-8.571 8.57-8.571 8.57 3.844 8.57 8.57-3.843 8.57-8.57 8.57M297.988 117.707c-13.066 0-23.699 10.633-23.699 23.7s10.633 23.698 23.7 23.698 23.698-10.632 23.698-23.699-10.632-23.699-23.699-23.699m0 32.27c-4.726 0-8.57-3.844-8.57-8.57s3.844-8.571 8.57-8.571 8.57 3.844 8.57 8.57-3.843 8.57-8.57 8.57m0 0"></path></svg>