<svg xmlns="http://www.w3.org/2000/svg" fill="currentColor" viewBox="0 0 32 32" class="PWSyjHXUyINIRzexSx3a undefined"><g data-name="8"><path d="M21.81 22.56a1 1 0 0 1-.62-1.78L27.27 16l-6-4.74a1 1 0 1 1 1.24-1.57l7 5.52a1 1 0 0 1 0 1.58l-7.09 5.53a1 1 0 0 1-.61.24M10.33 24.05a1 1 0 0 1-.61-.21l-7.36-5.75A1 1 0 0 1 2 17.3a1 1 0 0 1 .39-.78l7.3-5.75a1 1 0 1 1 1.24 1.58l-6.31 5 6.36 5a1 1 0 0 1-.62 1.78zM13.06 30h-.22a1 1 0 0 1-.76-1.2L18 2.78A1 1 0 0 1 19.19 2a1 1 0 0 1 .75 1.2L14 29.22a1 1 0 0 1-.94.78"></path></g></svg>