<svg xmlns="http://www.w3.org/2000/svg" xml:space="preserve" fill="currentColor" viewBox="0 0 57 57" class="xfjz2zlx8aVp2KwXVJ9H"><path d="M53.5 13.5c0-2.481-2.019-4.5-4.5-4.5h-1.551c-.503-5.046-4.773-9-9.949-9h-18c-5.177 0-9.446 3.954-9.949 9H8a4.505 4.505 0 0 0-4.5 4.5c0 1.951 1.255 3.599 2.995 4.222-.009 6.706-.029 30.277-.029 30.277a5.006 5.006 0 0 0 5 5.001h3.032v1.694A2.31 2.31 0 0 0 16.804 57h23.389a2.31 2.31 0 0 0 2.305-2.306V53h2.968c2.757 0 5-2.243 5-4.999 0 0 .032-23.571.034-30.277 1.742-.621 3-2.271 3-4.224M19.5 2h18c4.072 0 7.436 3.06 7.931 7H11.569c.495-3.94 3.859-7 7.931-7m20.998 52.694a.306.306 0 0 1-.305.306H16.804a.307.307 0 0 1-.306-.306V53h24zM45.466 51h-34c-1.654 0-3-1.346-3-2.999 0 0 .019-22.942.028-30.001H48.5c-.002 7.063-.034 29.999-.034 29.999a3.004 3.004 0 0 1-3 3.001m3.673-35.014c-3.7.019-37.633.017-41.289-.001A2.496 2.496 0 0 1 5.5 13.5C5.5 12.121 6.622 11 8 11h41c1.378 0 2.5 1.121 2.5 2.5a2.496 2.496 0 0 1-2.361 2.486"></path><path d="M38.876 23.303c-3.105 0-5.779 1.852-6.995 4.505a4.58 4.58 0 0 0-3.308-1.414c-1.299 0-2.47.546-3.308 1.414-1.216-2.654-3.89-4.505-6.995-4.505-4.244 0-7.697 3.453-7.697 7.697s3.453 7.697 7.697 7.697 7.697-3.453 7.697-7.697c0-1.438 1.169-2.606 2.606-2.606s2.606 1.169 2.606 2.606c0 4.244 3.453 7.697 7.697 7.697s7.697-3.453 7.697-7.697-3.452-7.697-7.697-7.697M18.271 36.697c-3.142 0-5.697-2.556-5.697-5.697s2.556-5.697 5.697-5.697 5.697 2.556 5.697 5.697-2.556 5.697-5.697 5.697m20.605 0c-3.142 0-5.697-2.556-5.697-5.697s2.556-5.697 5.697-5.697 5.697 2.556 5.697 5.697-2.555 5.697-5.697 5.697M22.5 42a1 1 0 1 0 0 2c7.072 0 12 1.581 12 3a1 1 0 1 0 2 0c0-4.759-11.662-5-14-5"></path><path d="m18.126 21.197 6 3a1 1 0 0 0 .895-1.79l-6-3a1.001 1.001 0 0 0-.895 1.79M32.574 24.303c.15 0 .303-.034.446-.105l6-3a1 1 0 0 0-.895-1.789l-6 3a1 1 0 0 0 .449 1.894"></path></svg>