<svg xmlns="http://www.w3.org/2000/svg" fill="currentColor" viewBox="0 0 323.569 323.569" class="q0eFyITBqS4DhJoppTiM"><path d="M161.785 53.928c-74.459 0-134.821 60.361-134.821 134.821S87.325 323.57 161.785 323.57s134.821-60.361 134.821-134.821c-.085-74.424-60.397-134.736-134.821-134.821m13.482 241.74v-12.545c0-7.446-6.036-13.482-13.482-13.482s-13.482 6.036-13.482 13.482v12.538c-48.792-6.221-87.21-44.638-93.431-93.431H67.41c7.446 0 13.482-6.036 13.482-13.482s-6.036-13.482-13.482-13.482H54.872c6.221-48.792 44.638-87.21 93.431-93.431v12.538c0 7.446 6.036 13.482 13.482 13.482s13.482-6.036 13.482-13.482V81.836c48.795 6.218 87.216 44.636 93.437 93.431h-12.545c-7.446 0-13.482 6.036-13.482 13.482s6.036 13.482 13.482 13.482h12.538c-6.217 48.795-44.636 87.216-93.43 93.437"></path><path d="M175.267 183.166v-34.863c0-7.446-6.036-13.482-13.482-13.482s-13.482 6.036-13.482 13.482v40.446a13.49 13.49 0 0 0 3.95 9.532l26.964 26.964c5.356 5.173 13.891 5.024 19.064-.332 5.046-5.225 5.046-13.507 0-18.732zM134.821 26.964h53.928c7.446 0 13.482-6.036 13.482-13.482S196.195 0 188.749 0h-53.928c-7.446 0-13.482 6.036-13.482 13.482s6.036 13.482 13.482 13.482M314.314 74.348 276.185 36.22c-5.331-5.198-13.867-5.09-19.065.241-5.105 5.236-5.105 13.588 0 18.824l38.129 38.129c5.198 5.331 13.734 5.439 19.065.241s5.439-13.734.241-19.065a11 11 0 0 0-.241-.242M66.449 55.285c5.331-5.198 5.439-13.734.241-19.065s-13.734-5.439-19.065-.241q-.122.119-.241.241L9.256 74.348c-5.331 5.198-5.44 13.734-.242 19.065s13.734 5.44 19.065.242q.123-.12.242-.242z"></path></svg>