<svg xmlns="http://www.w3.org/2000/svg" width="512" fill="currentColor" viewBox="0 0 64 64" class="PWSyjHXUyINIRzexSx3a undefined"><path d="M63.971 45.334a1 1 0 0 0-.036-.135c-.015-.041-.028-.079-.047-.118q-.03-.053-.063-.104c-.016-.023-.019-.05-.036-.072-.013-.017-.032-.023-.045-.039a1 1 0 0 0-.095-.093c-.014-.013-.021-.029-.035-.041l-7.728-6.011c.069-.742.114-1.491.114-2.235a23.97 23.97 0 0 0-13.996-21.804v-6.2c0-.021-.011-.038-.012-.059a1.1 1.1 0 0 0-.1-.379q-.029-.054-.063-.104c-.016-.023-.019-.05-.036-.072-.013-.017-.032-.023-.046-.039a1 1 0 0 0-.094-.093c-.014-.013-.021-.029-.035-.041L32.614.693c-.021-.016-.046-.02-.067-.033a1 1 0 0 0-.182-.092c-.06-.023-.115-.046-.177-.058A1 1 0 0 0 32 .498a1 1 0 0 0-.188.013c-.062.012-.117.035-.177.059a1 1 0 0 0-.181.09c-.022.015-.048.018-.068.034l-9.004 7.002c-.017.013-.023.032-.039.046a1 1 0 0 0-.087.085c-.015.017-.035.024-.049.042-.018.022-.021.049-.036.072q-.036.053-.065.108c-.018.036-.03.072-.044.111a1 1 0 0 0-.054.265c-.001.021-.012.038-.012.06v6.198A23.96 23.96 0 0 0 8 36.486c0 .748.045 1.496.113 2.235L.387 44.73c-.017.013-.023.032-.039.046q-.046.04-.088.086c-.014.016-.034.023-.048.041-.017.022-.021.049-.036.071-.023.037-.047.07-.065.109-.018.037-.03.073-.044.112a.96.96 0 0 0-.054.264c-.001.021-.012.038-.012.06v9.996c0 .021.011.039.012.06.005.07.022.135.041.203.017.06.03.118.057.173s.064.101.102.15a1 1 0 0 0 .136.157c.016.014.022.033.039.046l9.004 7.002c.039.031.085.045.128.068.026.016.048.037.075.049a.4.4 0 0 0 .055.021 1 1 0 0 0 .355.072h.002c.12 0 .239-.027.355-.072q.028-.01.055-.021c.027-.012.049-.033.075-.049.043-.023.089-.037.128-.068l8.484-6.598A23.85 23.85 0 0 0 32 60.485c4.604 0 9.042-1.313 12.896-3.778l8.485 6.599c.039.031.085.045.128.068.026.016.048.037.075.049a.4.4 0 0 0 .055.021 1 1 0 0 0 .355.072h.002c.12 0 .239-.027.355-.072q.028-.01.055-.021c.027-.012.049-.033.075-.049.043-.023.089-.037.128-.068l9.004-7.002c.017-.013.023-.032.039-.046.053-.046.094-.101.136-.157.037-.05.075-.096.102-.15s.04-.113.057-.173c.019-.068.036-.133.041-.203.001-.021.012-.038.012-.06V45.52c0-.021-.011-.039-.012-.061a1 1 0 0 0-.017-.125m-9.976-5.55 7.374 5.736-7.374 5.734-7.374-5.736zm-8.004 7.779 7.004 5.448v7.463l-7.004-5.447zm9.004 5.448 7.004-5.447v7.463l-7.004 5.447zM32 2.749l7.374 5.734L32 14.218l-7.374-5.734zm-8.004 12.566v-4.789L31 15.974v7.464l-7.004-5.448zm9.004.659 7.004-5.447v7.465L33 23.438zM17.379 45.521l-7.374 5.734-7.374-5.736 7.374-5.734zM2.001 47.563l7.004 5.448v7.463l-7.004-5.447zm9.004 5.448 7.004-5.447v7.463l-7.004 5.447zm9.004 1.906V45.52c0-.021-.011-.039-.012-.061a1 1 0 0 0-.053-.26c-.015-.041-.028-.079-.047-.118q-.03-.053-.063-.104c-.016-.023-.019-.05-.036-.072-.013-.017-.032-.023-.046-.039a1 1 0 0 0-.094-.093c-.014-.013-.021-.029-.035-.041l-9.004-7.004c-.021-.017-.047-.02-.068-.034a1 1 0 0 0-.178-.089c-.061-.024-.118-.047-.181-.06a1 1 0 0 0-.162-.014 23 23 0 0 1-.03-1.045A21.98 21.98 0 0 1 21.996 16.89v1.588c0 .021.011.039.013.061a1 1 0 0 0 .04.2c.017.061.03.12.058.175.026.055.063.101.101.15a1 1 0 0 0 .136.157c.016.014.022.033.039.046l9.004 7.004c.04.031.085.045.128.068.026.016.048.037.075.049a.4.4 0 0 0 .055.021 1 1 0 0 0 .355.072h.002c.12 0 .239-.027.355-.072q.028-.01.055-.021c.027-.012.049-.033.075-.049.043-.023.088-.037.128-.068l9.004-7.002c.017-.013.023-.032.039-.046.053-.046.094-.101.136-.157.037-.05.074-.096.102-.15.026-.055.04-.113.057-.173.019-.068.036-.133.041-.203.001-.021.012-.038.012-.06v-1.59A21.98 21.98 0 0 1 54 36.486c0 .348-.014.697-.03 1.046a1 1 0 0 0-.161.014 1 1 0 0 0-.182.06 1 1 0 0 0-.176.088c-.022.015-.049.019-.07.035l-9.004 7.002c-.017.013-.023.032-.039.046q-.046.04-.088.086c-.014.016-.034.023-.048.041-.017.022-.021.049-.036.071-.023.037-.047.07-.065.109q-.025.054-.044.112a.96.96 0 0 0-.054.264c-.001.021-.012.038-.012.06v9.396c-3.57 2.33-7.702 3.57-11.991 3.57s-8.419-1.24-11.991-3.569"></path></svg>