<svg xmlns="http://www.w3.org/2000/svg" fill="currentColor" viewBox="0 0 64 64" class="TP2W8nAv1_wemY_KsmOF undefined"><path d="M13.464 36.8A7.94 7.94 0 0 0 10 36c-4.411 0-8 3.589-8 8s3.589 8 8 8a8 8 0 0 0 6.648-3.557l7.557 3.783A8 8 0 0 0 24 54c0 4.411 3.589 8 8 8s8-3.589 8-8a7.95 7.95 0 0 0-1.375-4.478l10.619-11.103A7.96 7.96 0 0 0 54 40c4.411 0 8-3.589 8-8s-3.589-8-8-8a7.95 7.95 0 0 0-4.898 1.688l-10.79-10.79A7.95 7.95 0 0 0 40 10c0-4.411-3.589-8-8-8s-8 3.589-8 8c0 .608.074 1.199.204 1.769l-7.092 2.584C15.782 11.772 13.097 10 10 10c-4.411 0-8 3.589-8 8s3.589 8 8 8a7.9 7.9 0 0 0 3.2-.673l3.681 6.195zM10 50c-3.309 0-6-2.691-6-6s2.691-6 6-6 6 2.691 6 6-2.691 6-6 6m7.539-3.349A8 8 0 0 0 18 44a7.98 7.98 0 0 0-2.855-6.117l2.876-4.442 8.671 14.591a8 8 0 0 0-1.794 2.303zM32 18a7.95 7.95 0 0 0 4.898-1.688l10.791 10.791a8 8 0 0 0-1.41 2.839l-6.282-.864c-.001-.026.003-.052.003-.078 0-4.411-3.589-8-8-8a8 8 0 0 0-6.648 3.557l-1.193-.596 4.378-6.761c1.049.507 2.221.8 3.463.8m1 28.069V36.93a8.01 8.01 0 0 0 6.722-5.872l6.282.864q-.002.039-.004.078c0 1.91.674 3.663 1.795 5.04l-10.5 10.979A7.97 7.97 0 0 0 33 46.069M32 23c3.309 0 6 2.691 6 6s-2.691 6-6 6-6-2.691-6-6 2.691-6 6-6m-7.539 3.349A8 8 0 0 0 24 29c0 4.072 3.06 7.436 7 7.931v9.139a7.9 7.9 0 0 0-2.658.824l-9.108-15.327 3.831-5.916zM32 60c-3.309 0-6-2.691-6-6s2.691-6 6-6 6 2.691 6 6-2.691 6-6 6m22-34c3.309 0 6 2.691 6 6s-2.691 6-6 6-6-2.691-6-6 2.691-6 6-6M32 4c3.309 0 6 2.691 6 6s-2.691 6-6 6-6-2.691-6-6 2.691-6 6-6m-7.112 9.647a8.1 8.1 0 0 0 1.967 2.47l-4.496 6.944-4.82-2.41A8 8 0 0 0 18 18c0-.608-.074-1.199-.204-1.769zM4 18c0-3.309 2.691-6 6-6s6 2.691 6 6-2.691 6-6 6-6-2.691-6-6m10.915 6.299a8 8 0 0 0 1.733-1.856l4.617 2.308-3.171 4.897z"></path></svg>