<svg xmlns="http://www.w3.org/2000/svg" fill="currentColor" viewBox="0 -47 499.467 499" class="PWSyjHXUyINIRzexSx3a undefined"><path d="M164.398 405.566h-64c-23.464 0-42.664-19.199-42.664-42.668V260.633L0 202.898l57.734-57.73V42.898c0-23.464 19.2-42.664 42.664-42.664h64v21.332h-64c-11.73 0-21.332 9.602-21.332 21.332v111.067l-48.933 48.933 48.933 48.934v111.066c0 11.735 9.602 21.336 21.332 21.336h64zM399.066 405.566h-64v-21.332h64c11.735 0 21.332-9.601 21.332-21.336V251.832l48.934-48.934-48.934-48.933V42.898c0-11.73-9.597-21.332-21.332-21.332h-64V.234h64c23.47 0 42.668 19.2 42.668 42.664v102.27l57.73 57.73-57.73 57.735v102.265c0 23.47-19.199 42.668-42.668 42.668m0 0"></path></svg>