<svg xmlns="http://www.w3.org/2000/svg" fill="currentColor" data-name="Layer 2" viewBox="0 0 70 70" class="PWSyjHXUyINIRzexSx3a undefined"><path d="M52.62 41 35 50.15 17.38 41a1 1 0 0 0-1.21.22 1 1 0 0 0-.08 1.23l18.08 26.61.1.11a.8.8 0 0 0 .27.18h.07a.9.9 0 0 0 .7 0h.07a.8.8 0 0 0 .27-.18l.1-.11 18.16-26.58a1 1 0 0 0-.08-1.23 1 1 0 0 0-1.21-.25M34 51.88v13.37L20 44.62zm2 13.37V51.88l14-7.26z"></path><path d="M16 35.64a1 1 0 0 0 0 .15v.05a.5.5 0 0 0 .09.12.5.5 0 0 0 .11.16.7.7 0 0 0 .16.13 1 1 0 0 0 .11.09l18.08 9.11a.93.93 0 0 0 .84 0l18.08-9.11a.74.74 0 0 0 .28-.22.8.8 0 0 0 .16-.25.1.1 0 0 1 0-.05 1 1 0 0 0 0-.15 1.4 1.4 0 0 0 0-.2 1 1 0 0 0 0-.17 1 1 0 0 0-.06-.2L54 35 35.88 1a1 1 0 0 0-.14-.19 1 1 0 0 0-1.48 0 1 1 0 0 0-.14.19L16 35v.06a1.4 1.4 0 0 0-.06.19 1 1 0 0 0 0 .18 1.4 1.4 0 0 0 .06.21M34 43l-14.72-7.45L34 29.2zm2-13.8 14.72 6.35L36 43zm0-2.2V5.51l14.86 27.93zm-2 0-14.86 6.44L34 5.51z"></path></svg>