<svg xmlns="http://www.w3.org/2000/svg" xml:space="preserve" fill="currentColor" viewBox="0 0 512.001 512.001" class="xfjz2zlx8aVp2KwXVJ9H"><path d="m74.301 202.311 25.6-25.6a8.53 8.53 0 0 0 0-12.068 8.53 8.53 0 0 0-12.068 0l-25.6 25.6a8.534 8.534 0 0 0 12.068 12.068M328.933 333.73c-42.546 21.535-88.107 21.499-128.695.068-6.872-3.629-14.622 3.069-12.028 10.395 12.285 34.689 40.583 56.885 76.311 56.885 35.727 0 64.026-22.196 76.31-56.885 2.57-7.258-5.028-13.94-11.898-10.463m-16.682 27.522c-11.676 14.452-28.262 22.759-47.731 22.759-20.596 0-37.965-9.295-49.708-25.329 32.268 11.125 66.539 11.016 99.664-.342z"></path><path d="M490.382 198.917c.272-1.588 1.243-4.686 3.025-7.663 2.538-4.239 5.74-6.496 10.275-6.61a8.533 8.533 0 0 0 8.318-8.531v-28.689a8.54 8.54 0 0 0-4.954-7.747c-1.411-.652-3.972-1.709-7.636-3.034-5.979-2.162-12.961-4.313-20.897-6.313-9.648-2.432-19.656-4.417-29.99-5.928l29.029-78.775c2.517-6.831-4.126-13.475-10.957-10.958L360.208 73.868c-29.178-14.676-61.786-22.659-95.69-22.659-33.898 0-66.501 7.981-95.678 22.654L62.455 34.673C55.624 32.157 48.981 38.8 51.498 45.63l28.303 76.822c-16.204 1.512-31.669 4.188-46.313 7.879-7.936 2-14.918 4.151-20.897 6.313-3.664 1.325-6.226 2.383-7.636 3.034A8.53 8.53 0 0 0 0 147.425v28.689a8.534 8.534 0 0 0 8.318 8.531c4.534.114 7.736 2.371 10.275 6.61 1.782 2.977 2.753 6.075 3.05 7.815 4.004 26.351 10.838 46.682 22.081 62.01-18.498 4.802-33.201 12.798-41.882 23.77a8.534 8.534 0 0 0 13.384 10.59c6.508-8.224 19.393-14.841 36.336-18.708a213.3 213.3 0 0 0 4.99 35.376c-23.385 6.023-43.16 17.597-54.759 32.537a8.533 8.533 0 0 0 1.508 11.973 8.533 8.533 0 0 0 11.973-1.508c9.196-11.846 25.765-21.433 45.723-26.531 27.197 86.563 108.061 149.297 203.524 149.297 93.626 0 173.156-60.314 201.876-144.205 12.997 5.372 23.625 12.803 30.33 21.439a8.533 8.533 0 0 0 11.973 1.508 8.533 8.533 0 0 0 1.508-11.973c-8.871-11.427-22.528-20.882-38.921-27.395a213 213 0 0 0 5.857-35.294c8.735 3.644 15.481 8.237 19.632 13.484a8.534 8.534 0 0 0 13.384-10.59c-7.127-9.007-18.305-16.012-32.312-20.891-.017-5.82-.294-11.703-.801-17.679 6.233-13.004 10.494-28.666 13.335-47.363m-35.238-141.84-24.053 65.273a323 323 0 0 0-8.21-.642 214.3 214.3 0 0 0-43.302-36.789zm-99.653 33.55c.058.032.107.073.166.104 15.46 8.124 29.766 18.344 42.575 30.32-31.685.304-65.761 5.018-101.818 15.224q-.502.139-1.004.281c-1.905.544-3.817 1.11-5.733 1.685-.67.201-1.338.392-2.008.597-1.841.562-3.69 1.148-5.54 1.738-.617.197-1.231.38-1.849.58-7.866 2.542-16.07 3.843-24.278 3.843s-16.411-1.301-24.281-3.845a449 449 0 0 0-6.909-2.172c-.819-.251-1.633-.485-2.45-.73-1.339-.401-2.679-.807-4.014-1.193-30.906-8.964-60.369-13.888-88.14-15.46 12.956-12.211 27.471-22.617 43.184-30.873.071-.037.129-.085.198-.124 27.573-14.451 58.607-22.326 90.928-22.326 32.341-.001 63.391 7.885 90.973 22.351M73.904 57.078l75.565 27.836a214.3 214.3 0 0 0-42.718 36.133c-3.09.034-6.148.123-9.191.24zM33.236 182.487c-3.873-6.468-9.265-11.28-16.169-13.52V153.18q.629-.234 1.327-.486c5.453-1.972 11.892-3.955 19.264-5.813 16.509-4.161 34.146-6.974 52.807-8.155a8.5 8.5 0 0 0 1.785.096c6.049-.329 12.1-.499 18.216-.499q.033-.001.064-.003c31.857.023 65.299 4.514 100.075 14.284.376.106.75.208 1.126.315 1.796.51 3.599 1.045 5.402 1.584.736.22 1.469.431 2.206.656 1.62.493 3.247 1.011 4.873 1.528.752.239 1.5.466 2.254.71 9.564 3.091 19.538 4.673 29.533 4.673s19.97-1.582 29.53-4.672a445 445 0 0 1 7.426-2.327q2.598-.79 5.181-1.541c.994-.288 1.986-.568 2.978-.848q1.265-.357 2.526-.707c40.446-11.123 78.921-15.076 114.977-13.217h.007c5.852.306 11.573.764 17.222 1.372.527.057 1.049.06 1.563.021 12.856 1.494 25.181 3.768 36.932 6.73 7.373 1.858 13.811 3.841 19.264 5.813q.699.253 1.327.486v15.787c-6.904 2.24-12.296 7.052-16.169 13.52-3.051 5.096-4.61 10.071-5.231 13.714-2.74 18.025-6.678 32.585-12.608 44.279-.055.098-.114.191-.166.293-11.7 22.742-31.968 35.426-68.226 40.595-.471.066-.939.134-1.416.197a220 220 0 0 1-6.183.752c-.24.026-.473.055-.714.081-10.19 1.073-19.772.651-28.647-1.002-15.929-2.967-29.567-9.913-40.29-19.376-14.044-12.395-23.09-29.102-25.734-46.831-1.812-12.123-6.178-21.173-12.553-27.282q-.062-.056-.125-.113c-.416-.394-.837-.78-1.269-1.149q-.716-.611-1.46-1.177c-6.322-4.804-12.845-6.391-18.141-6.254-5.296-.137-11.819 1.45-18.141 6.254-3.117 2.369-5.838 5.337-8.126 8.897-3.533 5.495-6.026 12.416-7.282 20.822-2.714 18.2-12.172 35.325-26.86 47.812-11.139 9.468-25.286 16.266-41.778 18.846-.163.025-.324.055-.487.079l-.104.014c-7.964 1.192-16.468 1.404-25.442.459-29.182-3.076-48.915-10.474-62.268-22.679a9 9 0 0 0-1.194-.91c-13.921-13.534-21.43-33.527-25.827-62.457-.645-3.793-2.204-8.768-5.255-13.864m421.766 129.507c-11.608-2.949-24.09-4.539-36.905-4.485a8.533 8.533 0 0 0 .072 17.067c11.167-.047 21.992 1.315 31.992 3.795-26.489 77.059-99.591 132.438-185.641 132.438-87.085 0-160.959-56.75-186.591-135.347a133 133 0 0 1 15.901-.886 8.534 8.534 0 0 0 .072-17.067c-6.991-.03-13.882.435-20.589 1.335a196 196 0 0 1-4.121-25.294c13.743 7.757 30.939 12.687 52.401 15.317l.082.01c1.424.174 2.859.342 4.321.495 10.089 1.061 19.695.868 28.747-.391 22.371-3.109 41.333-12.762 55.675-26.323 15.671-14.814 25.833-34.283 28.915-54.95.898-6.018 2.483-10.548 4.575-13.882 1.255-1.998 2.692-3.566 4.272-4.766 2.847-2.163 5.692-2.838 7.431-2.779 2.521-.059 5.363.616 8.209 2.778q.394.299.775.629c3.83 3.315 6.723 8.994 8.069 18.019 2.964 19.873 12.475 38.637 27.134 53.221 14.509 14.437 34.066 24.77 57.314 28.032 9.093 1.277 18.747 1.478 28.888.411 30.925-3.257 53.337-10.977 69.501-24.616a8.5 8.5 0 0 0 3.464 1.635c.485.105.955.22 1.434.329a196 196 0 0 1-5.397 35.275"></path></svg>