<svg xmlns="http://www.w3.org/2000/svg" fill="currentColor" viewBox="0 0 24 24" class="PWSyjHXUyINIRzexSx3a undefined"><path d="M15 18c-3.309 0-6-2.691-6-6s2.691-6 6-6 6 2.691 6 6-2.691 6-6 6m0-11c-2.757 0-5 2.243-5 5s2.243 5 5 5 5-2.243 5-5-2.243-5-5-5"></path><path d="M23.5 21a.5.5 0 0 1-.354-.146l-4.616-4.616a.5.5 0 0 1 .707-.707l4.616 4.616A.5.5 0 0 1 23.5 21M17.5 2H.5a.5.5 0 0 1 0-1h17a.5.5 0 0 1 0 1M17.5 23H.5a.5.5 0 0 1 0-1h17a.5.5 0 0 1 0 1M8.5 7h-8a.5.5 0 0 1 0-1h8a.5.5 0 0 1 0 1M8.5 18h-8a.5.5 0 0 1 0-1h8a.5.5 0 0 1 0 1M6.5 12.5h-6a.5.5 0 0 1 0-1h6a.5.5 0 0 1 0 1"></path></svg>