<svg xmlns="http://www.w3.org/2000/svg" fill="currentColor" viewBox="0 0 60 60" class="PWSyjHXUyINIRzexSx3a undefined"><path d="M58.554 35.4 55.8 34.3a17.4 17.4 0 0 0-1.6-3.851l1.163-2.725a2.13 2.13 0 0 0-.32-2.245 20.7 20.7 0 0 0-2.528-2.529 2.13 2.13 0 0 0-2.243-.322l-2.726 1.164a17.5 17.5 0 0 0-3.85-1.6l-1.1-2.752a2.2 2.2 0 0 0-.6-.82V8c0-5.2-10.819-8-21-8S0 2.8 0 8v36c0 5.2 10.819 8 21 8 .55 0 1.081-.019 1.617-.033a2 2 0 0 0 .334.557 21 21 0 0 0 2.528 2.529 2.13 2.13 0 0 0 2.243.322l2.726-1.164a17.5 17.5 0 0 0 3.85 1.6l1.1 2.752a2.18 2.18 0 0 0 1.8 1.356c.623.056 1.247.083 1.854.083s1.2-.027 1.752-.083a2.18 2.18 0 0 0 1.8-1.358l1.1-2.75a17.5 17.5 0 0 0 3.85-1.6l2.724 1.163a2.14 2.14 0 0 0 2.245-.322 21 21 0 0 0 2.528-2.528 2.13 2.13 0 0 0 .321-2.242l-1.164-2.728A17.4 17.4 0 0 0 55.8 43.7l2.755-1.1a2.18 2.18 0 0 0 1.351-1.79 18.3 18.3 0 0 0 0-3.616 2.18 2.18 0 0 0-1.352-1.794M21 2c11.2 0 19 3.162 19 6s-7.8 6-19 6S2 10.838 2 8s7.8-6 19-6M2 11.561C5.591 14.464 13.468 16 21 16s15.409-1.536 19-4.439v6.486a19 19 0 0 0-2.8.036 2.18 2.18 0 0 0-1.8 1.358l-1.1 2.75a17.5 17.5 0 0 0-3.85 1.6l-2.724-1.163a2.13 2.13 0 0 0-2.246.322 21 21 0 0 0-2.527 2.528 2 2 0 0 0-.307.484C22.1 25.978 21.555 26 21 26 9.8 26 2 22.838 2 20Zm0 12C5.591 26.464 13.468 28 21 28c.584 0 1.158-.023 1.732-.042l1.062 2.488A17.4 17.4 0 0 0 22.2 34.3l-2.755 1.1a2.18 2.18 0 0 0-1.351 1.79c-.024.24-.022.482-.036.723C8.414 37.4 2 34.509 2 32Zm20.765 26.4C22.182 49.981 21.6 50 21 50 9.8 50 2 46.838 2 44v-8.506c2.612 2.189 7.859 4.016 16.045 4.416.015.3.015.6.045.9a2.18 2.18 0 0 0 1.356 1.8l2.75 1.1a17.4 17.4 0 0 0 1.6 3.851Zm35.154-9.34a.18.18 0 0 1-.107.122l-3.218 1.285a1 1 0 0 0-.6.689 15.4 15.4 0 0 1-1.762 4.247 1 1 0 0 0-.063.909l1.362 3.193a.16.16 0 0 1-.012.167 19 19 0 0 1-2.3 2.3.16.16 0 0 1-.158 0l-3.188-1.361a1 1 0 0 0-.908.063A15.4 15.4 0 0 1 42.72 54a1 1 0 0 0-.689.6l-1.284 3.215a.17.17 0 0 1-.133.112 17.7 17.7 0 0 1-3.239 0 .17.17 0 0 1-.121-.109L35.969 54.6a1 1 0 0 0-.689-.6 15.4 15.4 0 0 1-4.247-1.762 1 1 0 0 0-.908-.063l-3.19 1.362a.15.15 0 0 1-.169-.015 19 19 0 0 1-2.295-2.3.16.16 0 0 1 0-.157l1.361-3.19a1 1 0 0 0-.063-.909 15.4 15.4 0 0 1-1.762-4.247 1 1 0 0 0-.6-.689l-3.213-1.283a.18.18 0 0 1-.112-.124v-.011a16.3 16.3 0 0 1 0-3.239.18.18 0 0 1 .107-.122l3.218-1.285a1 1 0 0 0 .6-.689 15.4 15.4 0 0 1 1.762-4.247 1 1 0 0 0 .063-.909l-1.363-3.191a.16.16 0 0 1 .012-.167 19 19 0 0 1 2.3-2.3.16.16 0 0 1 .158 0l3.188 1.361a1 1 0 0 0 .908-.063A15.4 15.4 0 0 1 35.28 24a1 1 0 0 0 .689-.6l1.284-3.215a.17.17 0 0 1 .133-.112 17.5 17.5 0 0 1 3.239 0 .17.17 0 0 1 .121.109l1.285 3.218a1 1 0 0 0 .689.6 15.4 15.4 0 0 1 4.247 1.762 1 1 0 0 0 .908.063l3.19-1.362a.15.15 0 0 1 .169.015 19 19 0 0 1 2.3 2.3.16.16 0 0 1 0 .157l-1.361 3.19a1 1 0 0 0 .063.909 15.4 15.4 0 0 1 1.762 4.247 1 1 0 0 0 .6.689l3.213 1.283a.18.18 0 0 1 .113.135 16.3 16.3 0 0 1-.005 3.237Z"></path><path d="M39 26a13 13 0 1 0 13 13 13.015 13.015 0 0 0-13-13m0 24a11 11 0 1 1 11-11 11.013 11.013 0 0 1-11 11"></path><path d="M39 31a8 8 0 1 0 8 8 8.01 8.01 0 0 0-8-8m0 14a6 6 0 1 1 6-6 6.006 6.006 0 0 1-6 6M4.576 19.106q.504.235 1.057.454a1 1 0 0 0 .734-1.86q-.494-.195-.943-.406a1 1 0 0 0-.848 1.812M9.773 20.82q.505.119 1.03.224a1 1 0 0 0 .2.019 1 1 0 0 0 .2-1.98q-.495-.1-.97-.21a1 1 0 1 0-.454 1.947Z"></path></svg>