<svg xmlns="http://www.w3.org/2000/svg" xml:space="preserve" fill="currentColor" viewBox="0 0 512 512" class="xfjz2zlx8aVp2KwXVJ9H"><path d="M372.853 23.594C341.774 7.594 306.681 0 271.853 0 161.063 0 52.618 76.766 82.173 204.133l-19.469 23.555-34.406 62.984 33.469 26.609-1.383 44.734 13.367 19.172s-15.93 59.844 8.422 68.328c22.883 8 47.82 9.969 66.922 9.969 18.812 0 31.977-1.906 31.977-1.906L183.728 512H409.65s-22.344-112.828 11.594-160.766c33.968-47.937 144.718-228.226-48.391-327.64m-271.29 111.007c4.024-18.304 12.102-35.195 24.016-50.187 15.352-19.32 37.109-35.359 62.922-46.391 25.555-10.922 54.375-16.688 83.352-16.688 32.703 0 64.266 7.336 91.234 21.227 28.266 14.555 50.781 31.656 66.938 50.828 13.922 16.523 23.453 35.031 28.344 55.008 7.422 30.43 4.531 65-8.609 102.867-4.031-6.031-9.891-12.852-19.125-19.117l-28.766-43.125 33.438-13.844-48.891-32.75 25.578-25.586-57.688-11.539 13.844-33.43-57.734 11.422V47.109l-48.97 32.641-13.844-33.43-32.75 48.898-25.586-25.586-11.539 57.703-33.43-13.844 11.422 57.727h-28.984c-16.445-13.492-23.93-26.203-26.281-30.812.328-1.945.688-3.891 1.109-5.805m75.079 32.477-3.68-18.625 20.594 8.531 5.094-25.461 3.719-18.617 15.766 15.758 14.445-21.578 10.57-15.773 8.523 20.594L273.282 97.5l15.797-10.531v22.297l25.477-5.039 18.625-3.688-8.531 20.594 25.469 5.094 18.609 3.719-15.766 15.766 21.594 14.445 15.766 10.562-20.594 8.531 14.391 21.609 10.547 15.797H392.4c-19.875-4.453-46.188-6.453-81.328-3.961-70.821 5.016-118.407-6.234-149.344-20.14h19.953zm204.757 283.344c.594 15.141 1.969 29.109 3.375 40.25H204.048l-1.672-34.156-1.117-23.453-23.242 3.391c-.117.016-12.086 1.703-28.922 1.703-15.32 0-37.562-1.422-57.805-8.078-.914-2.719-2.039-9.625-.695-22.234 1.211-11.375 3.758-21.109 3.773-21.172l2.547-9.562-5.664-8.125-9.328-13.375 1.172-37.672.328-10.703-8.383-6.656-19.414-15.438 24.82-45.43 18.172-21.984 6.719-8.141-2.383-10.273c-1.961-8.438-3.25-16.719-3.891-24.812 6.578 7.055 15.164 14.75 26.219 22.203 5.82 3.93 12.008 7.57 18.516 10.914l.43.641 1.984.586c15.086 7.5 31.898 13.461 50.258 17.789 33.695 7.945 72.758 10.414 116.117 7.336 44.312-3.141 77.594.781 98.875 11.641 16.062 8.188 21.312 18.188 25.156 25.469 1.031 1.984 1.969 3.781 3.062 5.406-12.5 27.781-27.312 50.375-35.844 62.406-16.843 23.81-24.405 61.341-22.437 111.529"></path></svg>