<svg xmlns="http://www.w3.org/2000/svg" xml:space="preserve" fill="currentColor" viewBox="0 0 295.238 295.238" class="xfjz2zlx8aVp2KwXVJ9H"><path d="M276.19 26.189H19.048C8.543 26.189 0 34.732 0 45.237v171.429c0 10.505 8.543 19.048 19.048 19.048h85.714v23.81H71.429v9.524h152.38v-9.524h-33.333v-23.81h85.714c10.505 0 19.048-8.543 19.048-19.048V45.237c0-10.505-8.543-19.048-19.048-19.048m-95.238 233.334h-66.667v-23.81h66.667zm104.762-42.857c0 5.252-4.271 9.524-9.524 9.524H19.048c-5.252 0-9.524-4.271-9.524-9.524V45.237c0-5.252 4.271-9.524 9.524-9.524H276.19c5.252 0 9.524 4.271 9.524 9.524z"></path><path d="M19.048 216.666H276.19V45.237H19.048zm9.523-161.904h238.095v152.381H28.571z"></path><circle cx="42.857" cy="69.048" r="4.762"></circle><circle cx="57.143" cy="69.048" r="4.762"></circle><circle cx="71.429" cy="69.048" r="4.762"></circle><path d="M38.095 140.476h66.667V83.333H38.095zm9.524-47.62h47.619v38.095H47.619zM114.286 140.476h66.667V83.333h-66.667zm9.524-47.62h47.619v38.095H123.81zM190.476 140.476h66.667V83.333h-66.667zM200 92.856h47.619v38.095H200zM38.095 149.999h142.857v9.524H38.095zM38.095 169.047h142.857v9.524H38.095zM38.095 188.094h142.857v9.524H38.095zM195.238 149.999h61.905v9.524h-61.905zM195.238 169.047h61.905v9.524h-61.905zM195.238 188.094h61.905v9.524h-61.905z"></path></svg>