<svg xmlns="http://www.w3.org/2000/svg" xml:space="preserve" fill="currentColor" viewBox="0 0 512 512" class="PWSyjHXUyINIRzexSx3a undefined"><path d="M503.467 0H8.533A8.53 8.53 0 0 0 0 8.533v494.933A8.53 8.53 0 0 0 8.533 512h494.933a8.53 8.53 0 0 0 8.533-8.533V8.533A8.53 8.53 0 0 0 503.467 0m-8.534 494.933H17.067V17.067h477.867v477.866z"></path><path d="M392.533 452.267c-32.93 0-59.733-26.795-59.733-59.733a8.53 8.53 0 0 0-8.533-8.533 8.53 8.53 0 0 0-8.533 8.533c0 42.342 34.449 76.8 76.8 76.8s76.8-34.458 76.8-76.8-34.449-76.8-76.8-76.8c-32.93 0-59.733-26.795-59.733-59.733s26.803-59.733 59.733-59.733 59.733 26.795 59.733 59.733a8.53 8.53 0 0 0 8.533 8.533 8.53 8.53 0 0 0 8.533-8.533c0-42.342-34.449-76.8-76.8-76.8s-76.8 34.458-76.8 76.8 34.449 76.8 76.8 76.8c32.93 0 59.733 26.795 59.733 59.733.001 32.938-26.802 59.733-59.733 59.733M213.333 469.333c42.351 0 76.8-34.458 76.8-76.8v-204.8a8.53 8.53 0 0 0-8.533-8.533 8.53 8.53 0 0 0-8.533 8.533v204.8c0 32.939-26.803 59.733-59.733 59.733s-59.733-26.795-59.733-59.733c0-4.71-3.814-8.533-8.533-8.533s-8.533 3.823-8.533 8.533c-.002 42.343 34.447 76.8 76.798 76.8"></path></svg>