<svg xmlns="http://www.w3.org/2000/svg" fill="currentColor" viewBox="0 0 512 512" class="REDt3StRIzYfri8EgGsb"><path d="M490.6 197.6H266.4v-68.5c0-7 5.7-12.8 12.8-12.8H322c7 0 12.8 5.7 12.8 12.8 0 18.5 15.1 33.6 33.6 33.6H416c18.5 0 33.6-15.1 33.6-33.6V79.6c0-5.8-4.7-10.4-10.4-10.4-5.8 0-10.4 4.7-10.4 10.4v49.5c0 7-5.7 12.8-12.8 12.8h-47.6c-7 0-12.8-5.7-12.8-12.8 0-18.5-15.1-33.6-33.6-33.6h-42.8c-18.5 0-33.6 15.1-33.6 33.6v68.5H21.4c-5.8 0-10.4 4.7-10.4 10.4v224.3c0 5.8 4.7 10.4 10.4 10.4h469.1c5.8 0 10.4-4.7 10.4-10.4V208.1c.1-5.8-4.6-10.5-10.3-10.5m-10.5 224.3H31.9V218.5h448.3v203.4z"></path><path d="M67.5 264.1h21.6c5.8 0 10.4-4.7 10.4-10.4 0-5.8-4.7-10.4-10.4-10.4H67.5c-5.8 0-10.4 4.7-10.4 10.4s4.7 10.4 10.4 10.4M156.4 264.1H178c5.8 0 10.4-4.7 10.4-10.4 0-5.8-4.7-10.4-10.4-10.4h-21.6c-5.8 0-10.4 4.7-10.4 10.4-.1 5.7 4.6 10.4 10.4 10.4M245.2 264.1h21.6c5.8 0 10.4-4.7 10.4-10.4 0-5.8-4.7-10.4-10.4-10.4h-21.6c-5.8 0-10.4 4.7-10.4 10.4s4.6 10.4 10.4 10.4M334 264.1h21.6c5.8 0 10.4-4.7 10.4-10.4 0-5.8-4.7-10.4-10.4-10.4H334c-5.8 0-10.4 4.7-10.4 10.4s4.7 10.4 10.4 10.4M422.9 264.1h21.6c5.8 0 10.4-4.7 10.4-10.4 0-5.8-4.7-10.4-10.4-10.4h-21.6c-5.8 0-10.4 4.7-10.4 10.4s4.6 10.4 10.4 10.4M67.5 330.6h21.6c5.8 0 10.4-4.7 10.4-10.4 0-5.8-4.7-10.4-10.4-10.4H67.5c-5.8 0-10.4 4.7-10.4 10.4 0 5.8 4.7 10.4 10.4 10.4M156.4 330.6H178c5.8 0 10.4-4.7 10.4-10.4 0-5.8-4.7-10.4-10.4-10.4h-21.6c-5.8 0-10.4 4.7-10.4 10.4-.1 5.8 4.6 10.4 10.4 10.4M245.2 330.6h21.6c5.8 0 10.4-4.7 10.4-10.4 0-5.8-4.7-10.4-10.4-10.4h-21.6c-5.8 0-10.4 4.7-10.4 10.4 0 5.8 4.6 10.4 10.4 10.4M334 330.6h21.6c5.8 0 10.4-4.7 10.4-10.4 0-5.8-4.7-10.4-10.4-10.4H334c-5.8 0-10.4 4.7-10.4 10.4 0 5.8 4.7 10.4 10.4 10.4M422.9 330.6h21.6c5.8 0 10.4-4.7 10.4-10.4 0-5.8-4.7-10.4-10.4-10.4h-21.6c-5.8 0-10.4 4.7-10.4 10.4 0 5.8 4.6 10.4 10.4 10.4M67.5 397.2h21.6c5.8 0 10.4-4.7 10.4-10.4 0-5.8-4.7-10.4-10.4-10.4H67.5c-5.8 0-10.4 4.7-10.4 10.4s4.7 10.4 10.4 10.4M156.4 397.2h199.3c5.8 0 10.4-4.7 10.4-10.4 0-5.8-4.7-10.4-10.4-10.4H156.4c-5.8 0-10.4 4.7-10.4 10.4-.1 5.7 4.6 10.4 10.4 10.4M422.9 397.2h21.6c5.8 0 10.4-4.7 10.4-10.4 0-5.8-4.7-10.4-10.4-10.4h-21.6c-5.8 0-10.4 4.7-10.4 10.4s4.6 10.4 10.4 10.4"></path></svg>