<svg xmlns="http://www.w3.org/2000/svg" fill="currentColor" viewBox="0 0 64 64" class="PWSyjHXUyINIRzexSx3a undefined"><path d="M42 18c.265 0 .52-.105.707-.293L54.414 6h1.77A3 3 0 0 0 59 8c1.654 0 3-1.346 3-3s-1.346-3-3-3a3 3 0 0 0-2.816 2H54a1 1 0 0 0-.707.293L41.586 16H40v-1c0-1.654-1.346-3-3-3s-3 1.346-3 3v3h-5.101A5.01 5.01 0 0 0 24 14c-1.252 0-2.384.479-3.262 1.242l-9.256-7.068A4.94 4.94 0 0 0 12 6c0-2.757-2.243-5-5-5S2 3.243 2 6s2.243 5 5 5c1.252 0 2.384-.479 3.262-1.242l9.256 7.068a5 5 0 0 0-.417 1.173h-7.202A5.01 5.01 0 0 0 7 14c-2.757 0-5 2.243-5 5s2.243 5 5 5c1.252 0 2.384-.479 3.262-1.242l3.59 2.742-3.59 2.742C9.384 27.479 8.252 27 7 27c-2.757 0-5 2.243-5 5s2.243 5 5 5c1.252 0 2.384-.479 3.262-1.242l3.59 2.742-3.59 2.742C9.384 40.479 8.252 40 7 40c-2.757 0-5 2.243-5 5s2.243 5 5 5a5.01 5.01 0 0 0 4.899-4h7.202c.085.415.236.802.417 1.173l-9.256 7.068C9.384 53.479 8.252 53 7 53c-2.757 0-5 2.243-5 5s2.243 5 5 5 5-2.243 5-5c0-.782-.196-1.513-.518-2.173l9.256-7.068C21.616 49.521 22.748 50 24 50a5.01 5.01 0 0 0 4.899-4H34v2c0 1.654 1.346 3 3 3s3-1.346 3-3h1.586l11.707 11.707A1 1 0 0 0 54 60h2.184A3 3 0 0 0 59 62c1.654 0 3-1.346 3-3s-1.346-3-3-3a3 3 0 0 0-2.816 2h-1.77L42.707 46.293A1 1 0 0 0 42 46h-2v-3h4.586l7.707 7.707A1 1 0 0 0 53 51h3.184A3 3 0 0 0 59 53c1.654 0 3-1.346 3-3s-1.346-3-3-3a3 3 0 0 0-2.816 2h-2.77l-7.707-7.707A1 1 0 0 0 45 41h-5v-3h8.586l3.707 3.707A1 1 0 0 0 53 42h3.184A3 3 0 0 0 59 44c1.654 0 3-1.346 3-3s-1.346-3-3-3a3 3 0 0 0-2.816 2h-2.77l-3.707-3.707A1 1 0 0 0 49 36h-9v-3h16.184A3 3 0 0 0 59 35c1.654 0 3-1.346 3-3s-1.346-3-3-3a3 3 0 0 0-2.816 2H40v-3h9c.265 0 .52-.105.707-.293L53.414 24h2.77A3 3 0 0 0 59 26c1.654 0 3-1.346 3-3s-1.346-3-3-3a3 3 0 0 0-2.816 2H53a1 1 0 0 0-.707.293L48.586 26H40v-3h5c.265 0 .52-.105.707-.293L53.414 15h2.77A3 3 0 0 0 59 17c1.654 0 3-1.346 3-3s-1.346-3-3-3a3 3 0 0 0-2.816 2H53a1 1 0 0 0-.707.293L44.586 21H40v-3zM59 4a1.001 1.001 0 1 1-1 1c0-.552.449-1 1-1m0 54a1.001 1.001 0 1 1-1 1c0-.552.449-1 1-1m0-9a1.001 1.001 0 1 1-1 1c0-.552.449-1 1-1m0-9a1.001 1.001 0 1 1-1 1c0-.552.449-1 1-1m0-9a1.001 1.001 0 1 1-1 1c0-.552.449-1 1-1m0-9a1.001 1.001 0 1 1-1 1c0-.552.449-1 1-1m0-9a1.001 1.001 0 1 1-1 1c0-.552.449-1 1-1m-30.101 7H34v11h-5.101A5.01 5.01 0 0 0 24 27c-1.252 0-2.384.479-3.262 1.242l-3.59-2.742 3.59-2.742C21.616 23.521 22.748 24 24 24a5.01 5.01 0 0 0 4.899-4M21 32c0-1.654 1.346-3 3-3s3 1.346 3 3-1.346 3-3 3-3-1.346-3-3m3-16c1.654 0 3 1.346 3 3s-1.346 3-3 3-3-1.346-3-3 1.346-3 3-3M7 9C5.346 9 4 7.654 4 6s1.346-3 3-3 3 1.346 3 3-1.346 3-3 3m0 13c-1.654 0-3-1.346-3-3s1.346-3 3-3 3 1.346 3 3-1.346 3-3 3m4.482-.827A5 5 0 0 0 11.899 20h7.202c.085.415.236.802.417 1.173L15.5 24.242zm8.036 8.654A5 5 0 0 0 19.101 31h-7.202a5 5 0 0 0-.417-1.173l4.018-3.068zM7 35c-1.654 0-3-1.346-3-3s1.346-3 3-3 3 1.346 3 3-1.346 3-3 3m4.482-.827A5 5 0 0 0 11.899 33h7.202c.085.415.236.802.417 1.173L15.5 37.242zM19.101 44h-7.202a5 5 0 0 0-.417-1.173l4.018-3.068 4.018 3.068A5 5 0 0 0 19.101 44M7 48c-1.654 0-3-1.346-3-3s1.346-3 3-3 3 1.346 3 3-1.346 3-3 3m0 13c-1.654 0-3-1.346-3-3s1.346-3 3-3 3 1.346 3 3-1.346 3-3 3m17-13c-1.654 0-3-1.346-3-3s1.346-3 3-3 3 1.346 3 3-1.346 3-3 3m4.899-4A5.01 5.01 0 0 0 24 40c-1.252 0-2.384.479-3.262 1.242l-3.59-2.742 3.59-2.742C21.616 36.521 22.748 37 24 37a5.01 5.01 0 0 0 4.899-4H34v11zM38 48a1.001 1.001 0 0 1-2 0V15a1.001 1.001 0 0 1 2 0z"></path><path d="M30 23h2v2h-2zM30 27h2v2h-2zM30 35h2v2h-2zM30 39h2v2h-2z"></path></svg>