<svg xmlns="http://www.w3.org/2000/svg" fill="currentColor" viewBox="0 0 64 64" class="PWSyjHXUyINIRzexSx3a undefined"><g data-name="8-learning"><path d="M59 41.1V24.9a5 5 0 1 0-4.657-8.283L36.933 5.662A5 5 0 0 0 37 5a5 5 0 0 0-10 0 5 5 0 0 0 .067.662L9.657 16.616A4.992 4.992 0 1 0 5 24.9v16.2a5 5 0 1 0 4.855 8.044l17.193 9.379c-.015.159-.048.313-.048.476a5 5 0 0 0 10 0c0-.163-.033-.317-.048-.476l17.193-9.379A4.989 4.989 0 1 0 59 41.1M58 17a3 3 0 1 1-3 3 3 3 0 0 1 3-3M32 2a3 3 0 1 1-3 3 3 3 0 0 1 3-3M3 20a3 3 0 1 1 3 3 3 3 0 0 1-3-3m3 29a3 3 0 1 1 3-3 3 3 0 0 1-3 3m26 13a3 3 0 1 1 3-3 3 3 0 0 1-3 3m4.346-5.424a4.954 4.954 0 0 0-8.692 0l-16.87-9.2A5 5 0 0 0 11 46a5.01 5.01 0 0 0-4-4.9V24.9a5.01 5.01 0 0 0 4-4.9 5 5 0 0 0-.309-1.672L27.748 7.6a4.963 4.963 0 0 0 8.5 0l17.061 10.728A5 5 0 0 0 53 20a5.01 5.01 0 0 0 4 4.9v16.2a5.01 5.01 0 0 0-4 4.9 5 5 0 0 0 .216 1.374ZM58 49a3 3 0 1 1 3-3 3 3 0 0 1-3 3"></path><path d="M24.876 31.051a3.37 3.37 0 0 1-2.316-3.057 1 1 0 0 0-2 .006 5.45 5.45 0 0 0 1.94 4 5.45 5.45 0 0 0-1.943 4 1 1 0 0 0 .992 1h.008a1 1 0 0 0 1-.989 3.37 3.37 0 0 1 2.316-3.058 1 1 0 0 0 0-1.9Z"></path><path d="M49.021 27.192a7.3 7.3 0 0 0-.7-5 7.44 7.44 0 0 0-5.447-3.786A5.96 5.96 0 0 0 37.14 14 5.8 5.8 0 0 0 32 16.358 5.8 5.8 0 0 0 26.86 14a5.96 5.96 0 0 0-5.737 4.411 7.44 7.44 0 0 0-5.445 3.789 7.3 7.3 0 0 0-.7 4.994A5.9 5.9 0 0 0 13 32a5.9 5.9 0 0 0 1.979 4.808 7.3 7.3 0 0 0 .7 4.995 7.44 7.44 0 0 0 5.447 3.786A5.96 5.96 0 0 0 26.86 50 5.8 5.8 0 0 0 32 47.642 5.8 5.8 0 0 0 37.14 50a5.96 5.96 0 0 0 5.737-4.411 7.44 7.44 0 0 0 5.445-3.789 7.3 7.3 0 0 0 .7-4.994A5.9 5.9 0 0 0 51 32a5.9 5.9 0 0 0-1.979-4.808M26.86 48a4.09 4.09 0 0 1-3.99-3.542 5.9 5.9 0 0 1-.16-1.408 5.2 5.2 0 0 1 1.063-3.386 1 1 0 1 0-1.546-1.264 7.15 7.15 0 0 0-1.517 4.65c0 .131.016.253.021.382a5.16 5.16 0 0 1-3.269-2.532 5.5 5.5 0 0 1-.624-3.073 5.6 5.6 0 0 0 1.424.275h.029a1 1 0 0 0 .034-2 3.9 3.9 0 0 1-1.682-.543A3.85 3.85 0 0 1 15 32a3.85 3.85 0 0 1 1.641-3.557 3.95 3.95 0 0 1 1.683-.544 1 1 0 0 0 .966-1.027.99.99 0 0 0-1.028-.972 5.6 5.6 0 0 0-1.424.275 5.5 5.5 0 0 1 .623-3.072 5.17 5.17 0 0 1 3.27-2.535c-.005.128-.021.251-.021.382a7.15 7.15 0 0 0 1.517 4.65 1 1 0 0 0 1.546-1.268 5.2 5.2 0 0 1-1.063-3.382 6 6 0 0 1 .166-1.435A4.08 4.08 0 0 1 26.86 16c2.825 0 4.14 1.3 4.14 4.1v6.954a8.5 8.5 0 0 0-2.96-1.948 1 1 0 1 0-.66 1.888C27.416 27.006 31 28.3 31 32a5.54 5.54 0 0 1-3.62 5.006 1 1 0 1 0 .66 1.888A8.5 8.5 0 0 0 31 36.946V43.9c0 2.8-1.315 4.1-4.14 4.1m19.679-7.1a5.17 5.17 0 0 1-3.27 2.535c.005-.128.021-.251.021-.382a7.15 7.15 0 0 0-1.517-4.653 1 1 0 1 0-1.546 1.268 5.2 5.2 0 0 1 1.063 3.382 6 6 0 0 1-.166 1.435A4.08 4.08 0 0 1 37.14 48C34.315 48 33 46.7 33 43.9v-6.954a8.5 8.5 0 0 0 2.96 1.948 1 1 0 1 0 .66-1.888C36.584 36.994 33 35.7 33 32a5.54 5.54 0 0 1 3.62-5.006 1 1 0 1 0-.66-1.888A8.5 8.5 0 0 0 33 27.054V20.1c0-2.8 1.315-4.1 4.14-4.1a4.09 4.09 0 0 1 3.99 3.542 5.9 5.9 0 0 1 .16 1.408 5.2 5.2 0 0 1-1.063 3.386 1 1 0 0 0 1.546 1.264 7.15 7.15 0 0 0 1.517-4.65c0-.131-.016-.253-.021-.382a5.16 5.16 0 0 1 3.269 2.532 5.5 5.5 0 0 1 .624 3.073 5.6 5.6 0 0 0-1.424-.275 1 1 0 0 0-.063 2 3.9 3.9 0 0 1 1.682.543A3.85 3.85 0 0 1 49 32a3.85 3.85 0 0 1-1.641 3.557 3.95 3.95 0 0 1-1.683.544 1 1 0 0 0 .033 2h.029a5.6 5.6 0 0 0 1.424-.275 5.5 5.5 0 0 1-.623 3.074"></path><path d="M43.44 28a1 1 0 0 0-.992-1h-.008a1 1 0 0 0-1 .989 3.37 3.37 0 0 1-2.316 3.058 1 1 0 0 0 0 1.9 3.37 3.37 0 0 1 2.316 3.057 1 1 0 0 0 2-.006A5.45 5.45 0 0 0 41.5 32a5.45 5.45 0 0 0 1.94-4"></path></g></svg>