<svg xmlns="http://www.w3.org/2000/svg" fill="currentColor" viewBox="0 0 64 64" class="PWSyjHXUyINIRzexSx3a undefined"><path d="M38.927 24H40c1.654 0 3-1.346 3-3v-5c0-.552.449-1 1-1h19V1h-6v2h-4v2h-4v2h-4v6h-1c-1.654 0-3 1.346-3 3v5c0 .552-.449 1-1 1h-1.08a7 7 0 0 0-3.236-4.941A7 7 0 0 0 36 15a7 7 0 0 0-3.111-5.816C32.955 8.794 33 8.399 33 8c0-3.859-3.14-7-7-7a7 7 0 0 0-6 3.397A7 7 0 0 0 14 1c-3.86 0-7 3.141-7 7q0 .596.104 1.188A6.97 6.97 0 0 0 4 15c0 .715.109 1.406.309 2.056A7.01 7.01 0 0 0 1 23c0 2.507 1.329 4.704 3.316 5.941A7 7 0 0 0 4 31a7 7 0 0 0 3.111 5.816A7 7 0 0 0 7 38c0 3.859 3.14 7 7 7a6.97 6.97 0 0 0 5-2.117V46c0 .552-.449 1-1 1H4c-1.654 0-3 1.346-3 3s1.346 3 3 3h18.171c.267 0 .519.104.708.293l.828.828c.566.567 1.32.879 2.122.879H45v1.701l1.321.479-.595 1.273 3.82 3.82 1.273-.596.48 1.323H56.7l.48-1.321 1.273.596 3.82-3.82-.595-1.273L63 56.701v-5.402l-1.321-.479.595-1.273-3.82-3.82-1.273.596-.48-1.323H51.3l-.48 1.321-1.273-.596-3.82 3.82.595 1.273-1.322.481V53H25.829a1 1 0 0 1-.708-.293l-.828-.828A2.98 2.98 0 0 0 22.171 51H4a1.001 1.001 0 0 1 0-2h14c1.654 0 3-1.346 3-3v-3.117A6.97 6.97 0 0 0 26 45h13c1.654 0 3-1.346 3-3v-6c0-.552.449-1 1-1h6.971c.01.084.029.164.029.25V37c0 2.206 1.794 4 4 4s4-1.794 4-4v-1.791c0-.68.322-1.293.862-1.64A8.97 8.97 0 0 0 63 26a9.01 9.01 0 0 0-3.006-6.714 9.06 9.06 0 0 0-7.039-2.228c-4.051.458-7.365 3.723-7.88 7.763-.405 3.18.854 6.224 3.299 8.179H43c-1.654 0-3 1.346-3 3v6c0 .552-.449 1-1 1h-8.111a6.97 6.97 0 0 0 2.007-6.188A6.97 6.97 0 0 0 36 31c0-.715-.109-1.406-.309-2.056A7.02 7.02 0 0 0 38.927 24M59 3h2v10h-2zm-2 2v8h-2V5zm-4 2v6h-2V7zm-6 2h2v4h-2zm0 43.701.823-.3.447-.212.423-1.019-.562-1.201 1.837-1.838 1.2.56 1.08-.445.453-1.246H55.3l.299.823.203.442 1.031.426 1.2-.56 1.837 1.838-.562 1.201.447 1.077 1.245.454v2.598l-.823.3-.447.212-.423 1.019.562 1.201-1.837 1.838-1.198-.56-1.081.445L55.299 61H52.7l-.299-.823-.204-.443-1.031-.425-1.198.56-1.837-1.838.562-1.201-.447-1.077L47 55.299zM54 39c-1.103 0-2-.897-2-2h4c0 1.103-.897 2-2 2m-1-13a1.001 1.001 0 1 1 1 1c-.551 0-1-.448-1-1m-5.94-.926c.4-3.137 2.974-5.672 6.12-6.027q.417-.048.829-.048c1.725 0 3.353.617 4.652 1.778A7.01 7.01 0 0 1 61 26a6.98 6.98 0 0 1-3.22 5.888c-1.057.679-1.703 1.833-1.768 3.112H55v-6.184A3 3 0 0 0 57 26c0-1.654-1.346-3-3-3s-3 1.346-3 3c0 1.302.839 2.402 2 2.816V35h-1.015c-.074-1.291-.711-2.439-1.749-3.103-2.308-1.474-3.525-4.088-3.176-6.823M14 43c-2.757 0-5-2.243-5-5 0-.097.015-.193.02-.29.629.186 1.292.29 1.98.29v-2c-2.757 0-5-2.243-5-5 0-.428.059-.846.164-1.252.586.159 1.2.252 1.836.252 3.86 0 7-3.141 7-7h-2c0 2.757-2.243 5-5 5s-5-2.243-5-5a5 5 0 0 1 2.18-4.118A7 7 0 0 0 11 22v-2c-2.757 0-5-2.243-5-5a4.99 4.99 0 0 1 2.702-4.438l.729-.379-.229-.787A5 5 0 0 1 9 8c0-2.757 2.243-5 5-5s5 2.243 5 5v30c0 2.757-2.243 5-5 5m20.821-15.882A7 7 0 0 0 29 24v2c2.757 0 5 2.243 5 5a4.99 4.99 0 0 1-2.702 4.438l-.729.379.229.788c.134.46.202.93.202 1.395 0 2.757-2.243 5-5 5s-5-2.243-5-5V8c0-2.757 2.243-5 5-5s5 2.243 5 5c0 .097-.015.193-.02.29A7 7 0 0 0 29 8v2c2.757 0 5 2.243 5 5 0 .428-.059.846-.164 1.252A7 7 0 0 0 32 16c-3.86 0-7 3.141-7 7h2c0-2.757 2.243-5 5-5s5 2.243 5 5a5 5 0 0 1-2.179 4.118"></path><path d="M8 15h2c0-.552.449-1 1-1v-2c-1.654 0-3 1.346-3 3M29 30c.551 0 1 .448 1 1h2c0-1.654-1.346-3-3-3zM24 29v2c.551 0 1 .448 1 1h2c0-1.654-1.346-3-3-3M14 39v2c1.654 0 3-1.346 3-3h-2c0 .552-.449 1-1 1M15 33c-.551 0-1-.448-1-1h-2c0 1.654 1.346 3 3 3zM26 12h2c0-1.654-1.346-3-3-3v2c.551 0 1 .448 1 1M24 16h2c0-1.654-1.346-3-3-3v2c.551 0 1 .448 1 1M15 19c-.551 0-1-.448-1-1h-2c0 1.654 1.346 3 3 3zM24 37h-2c0 1.654 1.346 3 3 3v-2c-.551 0-1-.448-1-1M15 9V7c-.551 0-1-.448-1-1h-2c0 1.654 1.346 3 3 3M54 59c2.757 0 5-2.243 5-5s-2.243-5-5-5-5 2.243-5 5 2.243 5 5 5m0-8c1.654 0 3 1.346 3 3s-1.346 3-3 3-3-1.346-3-3 1.346-3 3-3"></path></svg>