<svg xmlns="http://www.w3.org/2000/svg" xml:space="preserve" fill="currentColor" viewBox="0 0 512 512" class="PWSyjHXUyINIRzexSx3a undefined"><path d="M512 256c0-35.755-54.997-60.821-127.275-74.155 17.707-49.664 24.832-92.501 17.813-118.699-3.328-12.416-9.579-21.333-18.624-26.496-5.397-3.093-11.583-4.65-18.389-4.65-28.352 0-68.33 29.035-109.525 76.757C214.784 61.035 174.805 32 146.453 32c-6.805 0-12.992 1.557-18.411 4.651-9.024 5.163-15.275 14.08-18.603 26.496-7.019 26.197.107 69.035 17.813 118.699C54.976 195.179 0 220.245 0 256s54.997 60.821 127.275 74.155c-17.707 49.664-24.832 92.501-17.813 118.699 3.328 12.416 9.579 21.333 18.624 26.496 5.397 3.093 11.584 4.651 18.389 4.651 28.352 0 68.331-29.035 109.525-76.757C297.216 450.965 337.195 480 365.547 480c6.805 0 12.992-1.557 18.411-4.651 9.024-5.163 15.275-14.08 18.603-26.496 7.019-26.197-.128-69.035-17.813-118.699C457.024 316.821 512 291.755 512 256M365.525 53.333c3.093 0 5.653.597 7.829 1.856 3.904 2.219 6.784 6.741 8.576 13.483 6.144 22.912-1.323 62.912-18.496 109.653a708 708 0 0 0-59.605-6.165c-11.179-16.725-22.571-32.341-33.963-46.613 39.489-46.315 75.35-72.214 95.659-72.214m-183.402 244.95a817 817 0 0 0 11.563 19.2c-13.056-1.045-25.579-2.347-37.312-3.968 4.587-11.157 9.707-22.571 15.275-34.219 3.498 6.336 6.762 12.651 10.474 18.987m-25.75-99.798c11.733-1.621 24.277-2.923 37.333-3.968a817 817 0 0 0-11.563 19.2c-3.712 6.357-6.997 12.672-10.475 19.029-5.588-11.647-10.708-23.082-15.295-34.261m26.774 57.536c5.483-10.475 11.243-21.013 17.408-31.552 6.443-11.029 12.971-21.483 19.52-31.573C231.68 192.363 243.563 192 256 192s24.32.363 35.925.875c6.549 10.091 13.099 20.544 19.541 31.573 6.144 10.539 11.904 21.056 17.387 31.531a806 806 0 0 1-17.408 31.573c-6.443 11.029-12.971 21.483-19.52 31.573-11.605.512-23.488.875-35.925.875s-24.32-.363-35.925-.875c-6.549-10.091-13.099-20.544-19.541-31.573-6.145-10.539-11.905-21.056-17.387-31.531m146.688 42.262c3.733-6.357 7.019-12.672 10.496-19.029 5.589 11.648 10.709 23.083 15.296 34.261-11.733 1.621-24.277 2.923-37.355 3.968a817 817 0 0 0 11.563-19.2m.042-84.566a817 817 0 0 0-11.563-19.2c13.056 1.045 25.579 2.347 37.312 3.968-4.587 11.157-9.707 22.571-15.275 34.219-3.498-6.336-6.762-12.651-10.474-18.987m-52.693-42.73c-7.061-.192-14.144-.32-21.184-.32s-14.101.128-21.163.32A633 633 0 0 1 256 142.55a648 648 0 0 1 21.184 28.437M130.048 68.672c1.792-6.741 4.672-11.285 8.576-13.483 2.176-1.259 4.736-1.856 7.829-1.856 20.331 0 56.192 25.899 95.659 72.213-11.392 14.272-22.763 29.888-33.941 46.613-20.395 1.259-40.427 3.349-59.627 6.187-17.195-46.762-24.64-86.762-18.496-109.674M21.333 256c0-18.176 41.344-41.195 113.451-54.08 6.997 17.515 15.168 35.627 24.512 54.101-9.323 18.475-17.493 36.565-24.491 54.059C62.699 297.195 21.333 274.176 21.333 256m125.142 202.667c-3.093 0-5.653-.597-7.829-1.856-3.904-2.219-6.784-6.741-8.576-13.483-6.144-22.912 1.323-62.912 18.496-109.653a708 708 0 0 0 59.605 6.165c11.179 16.725 22.571 32.341 33.963 46.613-39.489 46.315-75.35 72.214-95.659 72.214m88.341-117.654c7.061.192 14.144.32 21.184.32s14.101-.128 21.163-.32A649 649 0 0 1 256 369.45a648 648 0 0 1-21.184-28.437m147.136 102.315c-1.792 6.72-4.693 11.264-8.576 13.483-2.176 1.259-4.736 1.856-7.829 1.856-20.331 0-56.192-25.899-95.659-72.213 11.392-14.272 22.763-29.888 33.941-46.613 20.395-1.259 40.427-3.349 59.627-6.187 17.195 46.762 24.64 86.762 18.496 109.674m-4.736-133.248c-6.997-17.515-15.168-35.627-24.512-54.101 9.323-18.475 17.493-36.565 24.491-54.059 72.107 12.885 113.472 35.904 113.472 54.08s-41.344 41.195-113.451 54.08"></path><path d="M256 298.667c23.531 0 42.667-19.136 42.667-42.667S279.531 213.333 256 213.333 213.333 232.469 213.333 256s19.136 42.667 42.667 42.667m0-64c11.755 0 21.333 9.557 21.333 21.333s-9.579 21.333-21.333 21.333-21.333-9.557-21.333-21.333 9.578-21.333 21.333-21.333"></path></svg>