<svg xmlns="http://www.w3.org/2000/svg" fill="currentColor" viewBox="0 0 131.8 131.8" class="PWSyjHXUyINIRzexSx3a undefined"><path d="M57.6 68.4h-8.1c-1.1 0-2 .9-2 2 0 .4.1.8.4 1.2.3.5.9.8 1.6.8h8.1c1.1 0 2-.9 2-2s-.9-2-2-2m12.9 0h-4.9c-1.1 0-2 .9-2 2s.9 2 2 2H69c.4-1 .9-2.1 1.5-4M55.6 88.7h-6.1c-1 0-1.8.7-2 1.6v.4c0 .7.4 1.3.9 1.7 2.4-1 3.4-1.4 7.2-3zm3.3-30.5V48h9.5c-.4-1-.9-2.2-1.7-4h-3.8v-.7l-1.4.1-2.6-2.6V44H57c-1.1 0-2 .9-2 2v14.2c0 1 .7 1.8 1.7 2H67v-4zm-21-26.4h-2c-.6 0-1.3 0-2.1-.1l-3.3-3.6c-5 2.1-5.1 2.1-10.1 4.2l.2 4.9-6.1 6.1-4.9-.2c-2.1 5-2.1 5.1-4.2 10.1L9 56.5v8.6l-3.8 3.4c2.1 5 2.1 5.1 4.2 10.1l4.9-.2 6.1 6.1-.2 4.9c5 2.1 5.1 2.1 10.1 4.2l3.3-3.6h6.3V31.8zm-4.3 55.8c-.6 0-1.1.3-1.5.7l-2.3 2.6-7.5-3.1.2-3.4c0-.5-.2-1.1-.6-1.5l-6.1-6.1q-.6-.6-1.5-.6l-3.5.2-3.1-7.5 2.6-2.3c.5-.4.7-.9.7-1.5v-8.6c0-.6-.3-1.1-.7-1.5l-2.6-2.3 3.1-7.5 3.5.2c.5 0 1.1-.2 1.5-.6l6.1-6.1q.6-.6.6-1.5l-.2-3.5 7.5-3.1 2.3 2.6c.4.5.9.7 1.5.7h2.3v8.2c-9.4 1-16.8 9-16.8 18.7s7.4 17.7 16.8 18.7v8.1zm2.3-12.2c-7.2-1-12.8-7.2-12.8-14.7 0-7.4 5.5-13.7 12.8-14.7zm13.6 3.2c-1.1 0-2 .9-2 2s.9 2 2 2h7.8l4-4z"></path><path d="m67.6 68.4.5.4-1.5 3.6h4.1l1.4-3.3c.1-.2.1-.5.1-.7zm-2.8-10.2v4h3.8v-4zm-7.4 30.5h-6.1l-3.8 1.6v.4c0 .7.4 1.3.9 1.7.3.2.7.3 1.1.3h2.4l4.3-1.8c.7-.3 1.2-1.1 1.2-1.9zM68.6 44h-5.7v-2.6H62l-2.6-2.6c-.2.5-.3 1-.4 1.5 0 .2-.1.3-.1.5v2.9l.3.3.8.8q.6.6 1.5.6l3.5-.2 1.2 2.8h4.1zM34.4 30l-2.7-3c-.5-.6-1.4-.8-2.2-.5l-10.1 4.2c-.7.3-1.2 1.1-1.2 1.9l.2 4-4.8 4.8-4-.2c-.8-.1-1.6.4-1.9 1.2L3.5 52.5c-.3.7-.1 1.6.5 2.2l3 2.7v6.8l-3 2.7c-.6.5-.8 1.4-.5 2.2l4.3 10.2c.3.7 1 1.2 1.9 1.2l4-.2 4.8 4.8-.2 4c-.1.8.4 1.6 1.2 1.9l10.1 4.1c.7.3 1.6.1 2.2-.5l2.7-3h5.4v-4h-6.3c-.6 0-1.1.3-1.5.7l-2.3 2.6-7.5-3.1.2-3.4c0-.5-.2-1.1-.6-1.5l-6.1-6.1q-.6-.6-1.5-.6l-3.5.2-3.1-7.5 2.6-2.3c.5-.4.7-.9.7-1.5v-8.6c0-.6-.3-1.1-.7-1.5l-2.6-2.3 3.1-7.5 3.5.2c.5 0 1.1-.2 1.5-.6l6.1-6.1q.6-.6.6-1.5l-.2-3.5 7.5-3.1 2.3 2.6c.4.5.9.7 1.5.7h6.3V30zm23.7 48.6-4 4h5.5l2.4-2.4 4 .2c.8.1 1.6-.4 1.9-1.2l.2-.6z"></path><path d="M37.9 44c-.7 0-1.3 0-2 .1-8.3 1-14.8 8.1-14.8 16.7s6.5 15.7 14.8 16.7c.7.1 1.3.1 2 .1s1.3 0 2-.1V44.1c-.7-.1-1.3-.1-2-.1M23.1 60.7c0-7.4 5.5-13.7 12.8-14.7v29.3c-7.2-.9-12.8-7.2-12.8-14.6M52.9 68.4c-.7 1.5-1.7 2.8-2.8 4h-.5c-.7 0-1.3-.3-1.6-.8-.2-.3-.4-.7-.4-1.2 0-1.1.9-2 2-2z"></path><path d="M55 53v7.2c0 1 .7 1.8 1.7 2v-1.4c0-2.8-.6-5.5-1.7-7.8M37.9 42c-.7 0-1.3 0-2 .1-9.4 1-16.8 9-16.8 18.7s7.4 17.7 16.8 18.7c.7.1 1.3.1 2 .1s1.3 0 2-.1v-4.1c-.7.1-1.3.1-2 .1s-1.3 0-2-.1c-7.2-1-12.8-7.2-12.8-14.7 0-7.4 5.5-13.7 12.8-14.7.7-.1 1.3-.1 2-.1s1.4.1 2 .1v-3.9c-.7-.1-1.3-.1-2-.1m12.6 26.4c-.7 1.2-1.6 2.2-2.6 3.2.3.5.9.8 1.6.8h3.2c1-1.2 1.8-2.6 2.4-4z"></path><path d="M57.6 68.4h-8.1c-1.1 0-2 .9-2 2 0 .4.1.8.4 1.2.3.5.9.8 1.6.8h8.1c1.1 0 2-.9 2-2s-.9-2-2-2m28.8 20.3h-17c-1.1 0-2 .9-2 2s.9 2 2 2h17c1.1 0 2-.9 2-2s-.9-2-2-2m0-10.1h-5.2c-1.1 0-2 .9-2 2s.9 2 2 2h5.2c1.1 0 2-.9 2-2s-.9-2-2-2m0 0h-5.2c-1.1 0-2 .9-2 2s.9 2 2 2h5.2c1.1 0 2-.9 2-2s-.9-2-2-2m0 10.1h-17c-1.1 0-2 .9-2 2s.9 2 2 2h17c1.1 0 2-.9 2-2s-.9-2-2-2m0-20.3H65.6c-1.1 0-2 .9-2 2s.9 2 2 2h20.8c1.1 0 2-.9 2-2s-.9-2-2-2M61.3 88.7h-3.9v.3c0 .8-.5 1.6-1.2 1.9l-4.3 1.8h9.5c1.1 0 1.9-.9 1.9-2s-.9-2-2-2m11.9-10.1H49.5c-1.1 0-2 .9-2 2s.9 2 2 2h23.7c1.1 0 2-.9 2-2s-.9-2-2-2M79 44h-1.9v-2.1c0-5-4.1-9.1-9.1-9.1-4 0-7.3 2.5-8.6 6l2.6 2.6h.9c.3-2.5 2.5-4.5 5.1-4.5 2.8 0 5.1 2.3 5.1 5.1v2h-6.4c.8 1.8 1.2 3 1.7 4h8.5v10.2h-18V48h7.3L65 45.2l-3.5.2q-.9 0-1.5-.6l-.8-.8-.3-.3v.3H57c-1.1 0-2 .9-2 2v14.2c0 1 .7 1.8 1.7 2H79c1.1 0 2-.9 2-2V46c0-1.1-.9-2-2-2M57.6 68.4h-8.1c-1.1 0-2 .9-2 2 0 .4.1.8.4 1.2.3.5.9.8 1.6.8h8.1c1.1 0 2-.9 2-2s-.9-2-2-2m-8.1 20.3c-1 0-1.8.7-2 1.6l3.8-1.6zM37.9 45.9v29.6c.7 0 1.3 0 2-.1V46c-.7 0-1.3-.1-2-.1m19.7 22.5h-8.1c-1.1 0-2 .9-2 2 0 .4.1.8.4 1.2.3.5.9.8 1.6.8h8.1c1.1 0 2-.9 2-2s-.9-2-2-2m28.8 0H65.6c-1.1 0-2 .9-2 2s.9 2 2 2h20.8c1.1 0 2-.9 2-2s-.9-2-2-2m0 20.3h-17c-1.1 0-2 .9-2 2s.9 2 2 2h17c1.1 0 2-.9 2-2s-.9-2-2-2m0-10.1h-5.2c-1.1 0-2 .9-2 2s.9 2 2 2h5.2c1.1 0 2-.9 2-2s-.9-2-2-2m0 0h-5.2c-1.1 0-2 .9-2 2s.9 2 2 2h5.2c1.1 0 2-.9 2-2s-.9-2-2-2m0 10.1h-17c-1.1 0-2 .9-2 2s.9 2 2 2h17c1.1 0 2-.9 2-2s-.9-2-2-2m0-20.3H65.6c-1.1 0-2 .9-2 2s.9 2 2 2h20.8c1.1 0 2-.9 2-2s-.9-2-2-2M61.3 88.7h-3.9v.3c0 .8-.5 1.6-1.2 1.9l-4.3 1.8h9.5c1.1 0 1.9-.9 1.9-2s-.9-2-2-2m11.9-10.1H49.5c-1.1 0-2 .9-2 2s.9 2 2 2h23.7c1.1 0 2-.9 2-2s-.9-2-2-2M79 44h-1.9v-2.1c0-5-4.1-9.1-9.1-9.1-4 0-7.3 2.5-8.6 6l2.6 2.6h.9c.3-2.5 2.5-4.5 5.1-4.5 2.8 0 5.1 2.3 5.1 5.1v2h-6.4c.8 1.8 1.2 3 1.7 4h8.5v10.2h-18V48h7.3L65 45.2l-3.5.2q-.9 0-1.5-.6l-.8-.8-.3-.3v.3H57c-1.1 0-2 .9-2 2v14.2c0 1 .7 1.8 1.7 2H79c1.1 0 2-.9 2-2V46c0-1.1-.9-2-2-2M57.6 68.4h-8.1c-1.1 0-2 .9-2 2 0 .4.1.8.4 1.2.3.5.9.8 1.6.8h8.1c1.1 0 2-.9 2-2s-.9-2-2-2m-8.1 20.3c-1 0-1.8.7-2 1.6l3.8-1.6zM37.9 45.9v29.6c.7 0 1.3 0 2-.1V46c-.7 0-1.3-.1-2-.1m19.7 22.5h-8.1c-1.1 0-2 .9-2 2 0 .4.1.8.4 1.2.3.5.9.8 1.6.8h8.1c1.1 0 2-.9 2-2s-.9-2-2-2m28.8 0H65.6c-1.1 0-2 .9-2 2s.9 2 2 2h20.8c1.1 0 2-.9 2-2s-.9-2-2-2m0 20.3h-17c-1.1 0-2 .9-2 2s.9 2 2 2h17c1.1 0 2-.9 2-2s-.9-2-2-2m0-10.1h-5.2c-1.1 0-2 .9-2 2s.9 2 2 2h5.2c1.1 0 2-.9 2-2s-.9-2-2-2m0 0h-5.2c-1.1 0-2 .9-2 2s.9 2 2 2h5.2c1.1 0 2-.9 2-2s-.9-2-2-2m0 10.1h-17c-1.1 0-2 .9-2 2s.9 2 2 2h17c1.1 0 2-.9 2-2s-.9-2-2-2m0-20.3H65.6c-1.1 0-2 .9-2 2s.9 2 2 2h20.8c1.1 0 2-.9 2-2s-.9-2-2-2M61.3 88.7h-3.9v.3c0 .8-.5 1.6-1.2 1.9l-4.3 1.8h9.5c1.1 0 1.9-.9 1.9-2s-.9-2-2-2m11.9-10.1H49.5c-1.1 0-2 .9-2 2s.9 2 2 2h23.7c1.1 0 2-.9 2-2s-.9-2-2-2M79 44h-1.9v-2.1c0-5-4.1-9.1-9.1-9.1-4 0-7.3 2.5-8.6 6l2.6 2.6h.9c.3-2.5 2.5-4.5 5.1-4.5 2.8 0 5.1 2.3 5.1 5.1v2h-6.4c.8 1.8 1.2 3 1.7 4h8.5v10.2h-18V48h7.3L65 45.2l-3.5.2q-.9 0-1.5-.6l-.8-.8-.3-.3v.3H57c-1.1 0-2 .9-2 2v14.2c0 1 .7 1.8 1.7 2H79c1.1 0 2-.9 2-2V46c0-1.1-.9-2-2-2M57.6 68.4h-8.1c-1.1 0-2 .9-2 2 0 .4.1.8.4 1.2.3.5.9.8 1.6.8h8.1c1.1 0 2-.9 2-2s-.9-2-2-2m-8.1 20.3c-1 0-1.8.7-2 1.6l3.8-1.6zM37.9 45.9v29.6c.7 0 1.3 0 2-.1V46c-.7 0-1.3-.1-2-.1m19.7 22.5h-8.1c-1.1 0-2 .9-2 2 0 .4.1.8.4 1.2.3.5.9.8 1.6.8h8.1c1.1 0 2-.9 2-2s-.9-2-2-2m15.6 10.2H49.5c-1.1 0-2 .9-2 2s.9 2 2 2h23.7c1.1 0 2-.9 2-2s-.9-2-2-2M61.3 88.7H49.5c-1 0-1.8.7-2 1.6v.4c0 .7.4 1.3.9 1.7.3.2.7.3 1.1.3h11.9c1.1 0 1.9-.9 1.9-2s-.9-2-2-2m25.1-20.3H65.6c-1.1 0-2 .9-2 2s.9 2 2 2h20.8c1.1 0 2-.9 2-2s-.9-2-2-2m0 20.3h-17c-1.1 0-2 .9-2 2s.9 2 2 2h17c1.1 0 2-.9 2-2s-.9-2-2-2m0-10.1h-5.2c-1.1 0-2 .9-2 2s.9 2 2 2h5.2c1.1 0 2-.9 2-2s-.9-2-2-2m0 0h-5.2c-1.1 0-2 .9-2 2s.9 2 2 2h5.2c1.1 0 2-.9 2-2s-.9-2-2-2m0 10.1h-17c-1.1 0-2 .9-2 2s.9 2 2 2h17c1.1 0 2-.9 2-2s-.9-2-2-2m0-20.3H65.6c-1.1 0-2 .9-2 2s.9 2 2 2h20.8c1.1 0 2-.9 2-2s-.9-2-2-2M61.3 88.7H49.5c-1 0-1.8.7-2 1.6v.4c0 .7.4 1.3.9 1.7.3.2.7.3 1.1.3h11.9c1.1 0 1.9-.9 1.9-2s-.9-2-2-2m11.9-10.1H49.5c-1.1 0-2 .9-2 2s.9 2 2 2h23.7c1.1 0 2-.9 2-2s-.9-2-2-2M79 44h-1.9v-2.1c0-5-4.1-9.1-9.1-9.1-4 0-7.3 2.5-8.6 6l2.6 2.6h.9c.3-2.5 2.5-4.5 5.1-4.5 2.8 0 5.1 2.3 5.1 5.1v2h-6.4c.8 1.8 1.2 3 1.7 4h8.5v10.2h-18V48h7.3L65 45.2l-3.5.2q-.9 0-1.5-.6l-.8-.8-.3-.3v.3H57c-1.1 0-2 .9-2 2v14.2c0 1 .7 1.8 1.7 2H79c1.1 0 2-.9 2-2V46c0-1.1-.9-2-2-2M57.6 68.4h-8.1c-1.1 0-2 .9-2 2 0 .4.1.8.4 1.2.3.5.9.8 1.6.8h8.1c1.1 0 2-.9 2-2s-.9-2-2-2M37.9 45.9v29.6c.7 0 1.3 0 2-.1V46c-.7 0-1.3-.1-2-.1m19.7 22.5h-8.1c-1.1 0-2 .9-2 2 0 .4.1.8.4 1.2.3.5.9.8 1.6.8h8.1c1.1 0 2-.9 2-2s-.9-2-2-2m15.6 10.2H49.5c-1.1 0-2 .9-2 2s.9 2 2 2h23.7c1.1 0 2-.9 2-2s-.9-2-2-2M61.3 88.7H49.5c-1 0-1.8.7-2 1.6v.4c0 .7.4 1.3.9 1.7.3.2.7.3 1.1.3h11.9c1.1 0 1.9-.9 1.9-2s-.9-2-2-2m25.1-20.3H65.6c-1.1 0-2 .9-2 2s.9 2 2 2h20.8c1.1 0 2-.9 2-2s-.9-2-2-2m0 20.3h-17c-1.1 0-2 .9-2 2s.9 2 2 2h17c1.1 0 2-.9 2-2s-.9-2-2-2m0-10.1h-5.2c-1.1 0-2 .9-2 2s.9 2 2 2h5.2c1.1 0 2-.9 2-2s-.9-2-2-2m0 0h-5.2c-1.1 0-2 .9-2 2s.9 2 2 2h5.2c1.1 0 2-.9 2-2s-.9-2-2-2m0 10.1h-17c-1.1 0-2 .9-2 2s.9 2 2 2h17c1.1 0 2-.9 2-2s-.9-2-2-2m0-20.3H65.6c-1.1 0-2 .9-2 2s.9 2 2 2h20.8c1.1 0 2-.9 2-2s-.9-2-2-2M61.3 88.7H49.5c-1 0-1.8.7-2 1.6v.4c0 .7.4 1.3.9 1.7.3.2.7.3 1.1.3h11.9c1.1 0 1.9-.9 1.9-2s-.9-2-2-2m11.9-10.1H49.5c-1.1 0-2 .9-2 2s.9 2 2 2h23.7c1.1 0 2-.9 2-2s-.9-2-2-2M79 44h-1.9v-2.1c0-5-4.1-9.1-9.1-9.1-4 0-7.3 2.5-8.6 6l2.6 2.6h.9c.3-2.5 2.5-4.5 5.1-4.5 2.8 0 5.1 2.3 5.1 5.1v2h-6.4c.8 1.8 1.2 3 1.7 4h8.5v10.2h-18V48h7.3L65 45.2l-3.5.2q-.9 0-1.5-.6l-.8-.8-.3-.3v.3H57c-1.1 0-2 .9-2 2v14.2c0 1 .7 1.8 1.7 2H79c1.1 0 2-.9 2-2V46c0-1.1-.9-2-2-2M57.6 68.4h-8.1c-1.1 0-2 .9-2 2 0 .4.1.8.4 1.2.3.5.9.8 1.6.8h8.1c1.1 0 2-.9 2-2s-.9-2-2-2M37.9 45.9v29.6c.7 0 1.3 0 2-.1V46c-.7 0-1.3-.1-2-.1m19.7 22.5h-8.1c-1.1 0-2 .9-2 2 0 .4.1.8.4 1.2.3.5.9.8 1.6.8h8.1c1.1 0 2-.9 2-2s-.9-2-2-2m15.6 10.2H49.5c-1.1 0-2 .9-2 2s.9 2 2 2h23.7c1.1 0 2-.9 2-2s-.9-2-2-2M61.3 88.7H49.5c-1 0-1.8.7-2 1.6v.4c0 .7.4 1.3.9 1.7.3.2.7.3 1.1.3h11.9c1.1 0 1.9-.9 1.9-2s-.9-2-2-2m25.1-20.3H65.6c-1.1 0-2 .9-2 2s.9 2 2 2h20.8c1.1 0 2-.9 2-2s-.9-2-2-2m0 20.3h-17c-1.1 0-2 .9-2 2s.9 2 2 2h17c1.1 0 2-.9 2-2s-.9-2-2-2m0-10.1h-5.2c-1.1 0-2 .9-2 2s.9 2 2 2h5.2c1.1 0 2-.9 2-2s-.9-2-2-2m0 0h-5.2c-1.1 0-2 .9-2 2s.9 2 2 2h5.2c1.1 0 2-.9 2-2s-.9-2-2-2m0 10.1h-17c-1.1 0-2 .9-2 2s.9 2 2 2h17c1.1 0 2-.9 2-2s-.9-2-2-2m0-20.3H65.6c-1.1 0-2 .9-2 2s.9 2 2 2h20.8c1.1 0 2-.9 2-2s-.9-2-2-2M61.3 88.7H49.5c-1 0-1.8.7-2 1.6v.4c0 .7.4 1.3.9 1.7.3.2.7.3 1.1.3h11.9c1.1 0 1.9-.9 1.9-2s-.9-2-2-2m11.9-10.1H49.5c-1.1 0-2 .9-2 2s.9 2 2 2h23.7c1.1 0 2-.9 2-2s-.9-2-2-2M79 44h-1.9v-2.1c0-5-4.1-9.1-9.1-9.1-4 0-7.3 2.5-8.6 6l2.6 2.6h.9c.3-2.5 2.5-4.5 5.1-4.5 2.8 0 5.1 2.3 5.1 5.1v2h-6.4c.8 1.8 1.2 3 1.7 4h8.5v10.2h-18V48h7.3L65 45.2l-3.5.2q-.9 0-1.5-.6l-.8-.8-.3-.3v.3H57c-1.1 0-2 .9-2 2v14.2c0 1 .7 1.8 1.7 2H79c1.1 0 2-.9 2-2V46c0-1.1-.9-2-2-2M57.6 68.4h-8.1c-1.1 0-2 .9-2 2 0 .4.1.8.4 1.2.3.5.9.8 1.6.8h8.1c1.1 0 2-.9 2-2s-.9-2-2-2M37.9 45.9v29.6c.7 0 1.3 0 2-.1V46c-.7 0-1.3-.1-2-.1m19.7 22.5h-8.1c-1.1 0-2 .9-2 2 0 .4.1.8.4 1.2.3.5.9.8 1.6.8h8.1c1.1 0 2-.9 2-2s-.9-2-2-2m15.6 10.2H49.5c-1.1 0-2 .9-2 2s.9 2 2 2h23.7c1.1 0 2-.9 2-2s-.9-2-2-2M61.3 88.7H49.5c-1 0-1.8.7-2 1.6v.4c0 .7.4 1.3.9 1.7.3.2.7.3 1.1.3h11.9c1.1 0 1.9-.9 1.9-2s-.9-2-2-2m25.1-20.3H65.6c-1.1 0-2 .9-2 2s.9 2 2 2h20.8c1.1 0 2-.9 2-2s-.9-2-2-2m0 20.3h-17c-1.1 0-2 .9-2 2s.9 2 2 2h17c1.1 0 2-.9 2-2s-.9-2-2-2m0-10.1h-5.2c-1.1 0-2 .9-2 2s.9 2 2 2h5.2c1.1 0 2-.9 2-2s-.9-2-2-2m0 0h-5.2c-1.1 0-2 .9-2 2s.9 2 2 2h5.2c1.1 0 2-.9 2-2s-.9-2-2-2m0 10.1h-17c-1.1 0-2 .9-2 2s.9 2 2 2h17c1.1 0 2-.9 2-2s-.9-2-2-2m0-20.3H65.6c-1.1 0-2 .9-2 2s.9 2 2 2h20.8c1.1 0 2-.9 2-2s-.9-2-2-2M61.3 88.7H49.5c-1 0-1.8.7-2 1.6v.4c0 .7.4 1.3.9 1.7.3.2.7.3 1.1.3h11.9c1.1 0 1.9-.9 1.9-2s-.9-2-2-2m11.9-10.1H49.5c-1.1 0-2 .9-2 2s.9 2 2 2h23.7c1.1 0 2-.9 2-2s-.9-2-2-2M79 44h-1.9v-2.1c0-5-4.1-9.1-9.1-9.1-4 0-7.3 2.5-8.6 6l2.6 2.6h.9c.3-2.5 2.5-4.5 5.1-4.5 2.8 0 5.1 2.3 5.1 5.1v2h-6.4c.8 1.8 1.2 3 1.7 4h8.5v10.2h-18V48h7.3L65 45.2l-3.5.2q-.9 0-1.5-.6l-.8-.8-.3-.3v.3H57c-1.1 0-2 .9-2 2v14.2c0 1 .7 1.8 1.7 2H79c1.1 0 2-.9 2-2V46c0-1.1-.9-2-2-2M57.6 68.4h-8.1c-1.1 0-2 .9-2 2 0 .4.1.8.4 1.2.3.5.9.8 1.6.8h8.1c1.1 0 2-.9 2-2s-.9-2-2-2M37.9 45.9v29.6c.7 0 1.3 0 2-.1V46c-.7 0-1.3-.1-2-.1m19.7 22.5h-8.1c-1.1 0-2 .9-2 2 0 .4.1.8.4 1.2.3.5.9.8 1.6.8h8.1c1.1 0 2-.9 2-2s-.9-2-2-2m15.6 10.2H49.5c-1.1 0-2 .9-2 2s.9 2 2 2h23.7c1.1 0 2-.9 2-2s-.9-2-2-2M61.3 88.7H49.5c-1 0-1.8.7-2 1.6v.4c0 .7.4 1.3.9 1.7.3.2.7.3 1.1.3h11.9c1.1 0 1.9-.9 1.9-2s-.9-2-2-2m25.1-20.3H65.6c-1.1 0-2 .9-2 2s.9 2 2 2h20.8c1.1 0 2-.9 2-2s-.9-2-2-2m0 20.3h-17c-1.1 0-2 .9-2 2s.9 2 2 2h17c1.1 0 2-.9 2-2s-.9-2-2-2m0-10.1h-5.2c-1.1 0-2 .9-2 2s.9 2 2 2h5.2c1.1 0 2-.9 2-2s-.9-2-2-2m0 0h-5.2c-1.1 0-2 .9-2 2s.9 2 2 2h5.2c1.1 0 2-.9 2-2s-.9-2-2-2m0 10.1h-17c-1.1 0-2 .9-2 2s.9 2 2 2h17c1.1 0 2-.9 2-2s-.9-2-2-2m0-20.3H65.6c-1.1 0-2 .9-2 2s.9 2 2 2h20.8c1.1 0 2-.9 2-2s-.9-2-2-2M61.3 88.7H49.5c-1 0-1.8.7-2 1.6v.4c0 .7.4 1.3.9 1.7.3.2.7.3 1.1.3h11.9c1.1 0 1.9-.9 1.9-2s-.9-2-2-2m11.9-10.1H49.5c-1.1 0-2 .9-2 2s.9 2 2 2h23.7c1.1 0 2-.9 2-2s-.9-2-2-2M79 44h-1.9v-2.1c0-5-4.1-9.1-9.1-9.1-4 0-7.3 2.5-8.6 6l2.6 2.6h.9c.3-2.5 2.5-4.5 5.1-4.5 2.8 0 5.1 2.3 5.1 5.1v2h-6.4c.8 1.8 1.2 3 1.7 4h8.5v10.2h-18V48h7.3L65 45.2l-3.5.2q-.9 0-1.5-.6l-.8-.8-.3-.3v.3H57c-1.1 0-2 .9-2 2v14.2c0 1 .7 1.8 1.7 2H79c1.1 0 2-.9 2-2V46c0-1.1-.9-2-2-2M57.6 68.4h-8.1c-1.1 0-2 .9-2 2 0 .4.1.8.4 1.2.3.5.9.8 1.6.8h8.1c1.1 0 2-.9 2-2s-.9-2-2-2M37.9 45.9v29.6c.7 0 1.3 0 2-.1V46c-.7 0-1.3-.1-2-.1m19.7 22.5h-8.1c-1.1 0-2 .9-2 2 0 .4.1.8.4 1.2.3.5.9.8 1.6.8h8.1c1.1 0 2-.9 2-2s-.9-2-2-2m15.6 10.2H49.5c-1.1 0-2 .9-2 2s.9 2 2 2h23.7c1.1 0 2-.9 2-2s-.9-2-2-2M61.3 88.7H49.5c-1 0-1.8.7-2 1.6v.4c0 .7.4 1.3.9 1.7.3.2.7.3 1.1.3h11.9c1.1 0 1.9-.9 1.9-2s-.9-2-2-2m25.1-20.3H65.6c-1.1 0-2 .9-2 2s.9 2 2 2h20.8c1.1 0 2-.9 2-2s-.9-2-2-2m0 20.3h-17c-1.1 0-2 .9-2 2s.9 2 2 2h17c1.1 0 2-.9 2-2s-.9-2-2-2m0-10.1h-5.2c-1.1 0-2 .9-2 2s.9 2 2 2h5.2c1.1 0 2-.9 2-2s-.9-2-2-2m0 0h-5.2c-1.1 0-2 .9-2 2s.9 2 2 2h5.2c1.1 0 2-.9 2-2s-.9-2-2-2m0 10.1h-17c-1.1 0-2 .9-2 2s.9 2 2 2h17c1.1 0 2-.9 2-2s-.9-2-2-2M65.6 68.4c-1.1 0-2 .9-2 2s.9 2 2 2h20.8c1.1 0 2-.9 2-2s-.9-2-2-2zm-4.3 20.3H49.5c-1 0-1.8.7-2 1.6v.4c0 .7.4 1.3.9 1.7.3.2.7.3 1.1.3h11.9c1.1 0 1.9-.9 1.9-2s-.9-2-2-2m-11.8-6.1h23.7c1.1 0 2-.9 2-2s-.9-2-2-2H49.5c-1.1 0-2 .9-2 2s.9 2 2 2m7.1-20.4h22.3c1.1 0 2-.9 2-2V46c0-1.1-.9-2-2-2H77v-2.1c0-5-4.1-9.1-9.1-9.1-4 0-7.3 2.5-8.6 6l2.6 2.6h.9c.3-2.5 2.5-4.5 5.1-4.5 2.8 0 5.1 2.3 5.1 5.1v2h-6.4c.8 1.8 1.2 3 1.7 4h8.5v10.2h-18V48h7.3L65 45.2l-3.5.2q-.9 0-1.5-.6l-.8-.8-.3-.3v.3H57c-1.1 0-2 .9-2 2v14.2c0 1 .7 1.8 1.6 2m-7.1 10.2h8.1c1.1 0 2-.9 2-2s-.9-2-2-2h-8.1c-1.1 0-2 .9-2 2 0 .4.1.8.4 1.2.3.5.9.8 1.6.8m-11.6 3.1c.7 0 1.3 0 2-.1V46c-.6-.1-1.3-.1-2-.1zm43.3-54H37.9v80.6H98V38.3zm12 14.8h-10v-10zm2.8 63.8H39.9V23.5h39.3v14.8c0 1.1.9 2 2 2H96zm-9.6-21.5h-5.2c-1.1 0-2 .9-2 2s.9 2 2 2h5.2c1.1 0 2-.9 2-2s-.9-2-2-2m0 10.1h-17c-1.1 0-2 .9-2 2s.9 2 2 2h17c1.1 0 2-.9 2-2s-.9-2-2-2M65.6 68.4c-1.1 0-2 .9-2 2s.9 2 2 2h20.8c1.1 0 2-.9 2-2s-.9-2-2-2zm-4.3 20.3H49.5c-1 0-1.8.7-2 1.6v.4c0 .7.4 1.3.9 1.7.3.2.7.3 1.1.3h11.9c1.1 0 1.9-.9 1.9-2s-.9-2-2-2m-11.8-6.1h23.7c1.1 0 2-.9 2-2s-.9-2-2-2H49.5c-1.1 0-2 .9-2 2s.9 2 2 2m7.1-20.4h22.3c1.1 0 2-.9 2-2V46c0-1.1-.9-2-2-2H77v-2.1c0-5-4.1-9.1-9.1-9.1-4 0-7.3 2.5-8.6 6-.2.5-.3 1-.4 1.5 0 .2-.1.3-.1.5V44H57c-1.1 0-2 .9-2 2v14.2c0 1 .7 1.8 1.6 2M68 36.8c2.8 0 5.1 2.3 5.1 5.1V44H62.9v-2.6c.3-2.6 2.5-4.6 5.1-4.6M58.9 48h18v10.2h-18zm-9.4 24.4h8.1c1.1 0 2-.9 2-2s-.9-2-2-2h-8.1c-1.1 0-2 .9-2 2 0 .4.1.8.4 1.2.3.5.9.8 1.6.8M37.9 45.9v29.6c.7 0 1.3 0 2-.1V46c-.7 0-1.3-.1-2-.1m19.7 22.5h-8.1c-1.1 0-2 .9-2 2 0 .4.1.8.4 1.2.3.5.9.8 1.6.8h8.1c1.1 0 2-.9 2-2s-.9-2-2-2M79 44h-1.9v-2.1c0-5-4.1-9.1-9.1-9.1-4 0-7.3 2.5-8.6 6l2.6 2.6h.9c.3-2.5 2.5-4.5 5.1-4.5 2.8 0 5.1 2.3 5.1 5.1v2h-6.4c.8 1.8 1.2 3 1.7 4h8.5v10.2h-18V48h7.3L65 45.2l-3.5.2q-.9 0-1.5-.6l-.8-.8-.3-.3v.3H57c-1.1 0-2 .9-2 2v14.2c0 1 .7 1.8 1.7 2H79c1.1 0 2-.9 2-2V46c0-1.1-.9-2-2-2m-5.8 34.6H49.5c-1.1 0-2 .9-2 2s.9 2 2 2h23.7c1.1 0 2-.9 2-2s-.9-2-2-2M61.3 88.7H49.5c-1 0-1.8.7-2 1.6v.4c0 .7.4 1.3.9 1.7.3.2.7.3 1.1.3h11.9c1.1 0 1.9-.9 1.9-2s-.9-2-2-2m25.1-20.3H65.6c-1.1 0-2 .9-2 2s.9 2 2 2h20.8c1.1 0 2-.9 2-2s-.9-2-2-2m0 20.3h-17c-1.1 0-2 .9-2 2s.9 2 2 2h17c1.1 0 2-.9 2-2s-.9-2-2-2m0-10.1h-5.2c-1.1 0-2 .9-2 2s.9 2 2 2h5.2c1.1 0 2-.9 2-2s-.9-2-2-2m0 0h-5.2c-1.1 0-2 .9-2 2s.9 2 2 2h5.2c1.1 0 2-.9 2-2s-.9-2-2-2m0 10.1h-17c-1.1 0-2 .9-2 2s.9 2 2 2h17c1.1 0 2-.9 2-2s-.9-2-2-2m0-20.3H65.6c-1.1 0-2 .9-2 2s.9 2 2 2h20.8c1.1 0 2-.9 2-2s-.9-2-2-2M61.3 88.7H49.5c-1 0-1.8.7-2 1.6v.4c0 .7.4 1.3.9 1.7.3.2.7.3 1.1.3h11.9c1.1 0 1.9-.9 1.9-2s-.9-2-2-2m11.9-10.1H49.5c-1.1 0-2 .9-2 2s.9 2 2 2h23.7c1.1 0 2-.9 2-2s-.9-2-2-2M57.6 68.4h-8.1c-1.1 0-2 .9-2 2 0 .4.1.8.4 1.2.3.5.9.8 1.6.8h8.1c1.1 0 2-.9 2-2s-.9-2-2-2M37.9 45.9v29.6c.7 0 1.3 0 2-.1V46c-.7 0-1.3-.1-2-.1m19.7 22.5h-8.1c-1.1 0-2 .9-2 2 0 .4.1.8.4 1.2.3.5.9.8 1.6.8h8.1c1.1 0 2-.9 2-2s-.9-2-2-2M79 44h-1.9v-2.1c0-5-4.1-9.1-9.1-9.1-4 0-7.3 2.5-8.6 6l2.6 2.6h.9c.3-2.5 2.5-4.5 5.1-4.5 2.8 0 5.1 2.3 5.1 5.1v2h-6.4c.8 1.8 1.2 3 1.7 4h8.5v10.2h-18V48h7.3L65 45.2l-3.5.2q-.9 0-1.5-.6l-.8-.8-.3-.3v.3H57c-1.1 0-2 .9-2 2v14.2c0 1 .7 1.8 1.7 2H79c1.1 0 2-.9 2-2V46c0-1.1-.9-2-2-2m-5.8 34.6H49.5c-1.1 0-2 .9-2 2s.9 2 2 2h23.7c1.1 0 2-.9 2-2s-.9-2-2-2M61.3 88.7H49.5c-1 0-1.8.7-2 1.6v.4c0 .7.4 1.3.9 1.7.3.2.7.3 1.1.3h11.9c1.1 0 1.9-.9 1.9-2s-.9-2-2-2m25.1-20.3H65.6c-1.1 0-2 .9-2 2s.9 2 2 2h20.8c1.1 0 2-.9 2-2s-.9-2-2-2m0 20.3h-17c-1.1 0-2 .9-2 2s.9 2 2 2h17c1.1 0 2-.9 2-2s-.9-2-2-2m0-10.1h-5.2c-1.1 0-2 .9-2 2s.9 2 2 2h5.2c1.1 0 2-.9 2-2s-.9-2-2-2m0 0h-5.2c-1.1 0-2 .9-2 2s.9 2 2 2h5.2c1.1 0 2-.9 2-2s-.9-2-2-2m0 10.1h-17c-1.1 0-2 .9-2 2s.9 2 2 2h17c1.1 0 2-.9 2-2s-.9-2-2-2m0-20.3H65.6c-1.1 0-2 .9-2 2s.9 2 2 2h20.8c1.1 0 2-.9 2-2s-.9-2-2-2M61.3 88.7H49.5c-1 0-1.8.7-2 1.6v.4c0 .7.4 1.3.9 1.7.3.2.7.3 1.1.3h11.9c1.1 0 1.9-.9 1.9-2s-.9-2-2-2m11.9-10.1H49.5c-1.1 0-2 .9-2 2s.9 2 2 2h23.7c1.1 0 2-.9 2-2s-.9-2-2-2M57.6 68.4h-8.1c-1.1 0-2 .9-2 2 0 .4.1.8.4 1.2.3.5.9.8 1.6.8h8.1c1.1 0 2-.9 2-2s-.9-2-2-2M37.9 45.9v29.6c.7 0 1.3 0 2-.1V46c-.7 0-1.3-.1-2-.1m19.7 22.5h-8.1c-1.1 0-2 .9-2 2 0 .4.1.8.4 1.2.3.5.9.8 1.6.8h8.1c1.1 0 2-.9 2-2s-.9-2-2-2M79 44h-1.9v-2.1c0-5-4.1-9.1-9.1-9.1-4 0-7.3 2.5-8.6 6l2.6 2.6h.9c.3-2.5 2.5-4.5 5.1-4.5 2.8 0 5.1 2.3 5.1 5.1v2h-6.4c.8 1.8 1.2 3 1.7 4h8.5v10.2h-18V48h7.3L65 45.2l-3.5.2q-.9 0-1.5-.6l-.8-.8-.3-.3v.3H57c-1.1 0-2 .9-2 2v14.2c0 1 .7 1.8 1.7 2H79c1.1 0 2-.9 2-2V46c0-1.1-.9-2-2-2m-5.8 34.6H49.5c-1.1 0-2 .9-2 2s.9 2 2 2h23.7c1.1 0 2-.9 2-2s-.9-2-2-2M61.3 88.7H49.5c-1 0-1.8.7-2 1.6v.4c0 .7.4 1.3.9 1.7.3.2.7.3 1.1.3h11.9c1.1 0 1.9-.9 1.9-2s-.9-2-2-2m25.1-20.3H65.6c-1.1 0-2 .9-2 2s.9 2 2 2h20.8c1.1 0 2-.9 2-2s-.9-2-2-2m0 20.3h-17c-1.1 0-2 .9-2 2s.9 2 2 2h17c1.1 0 2-.9 2-2s-.9-2-2-2m0-10.1h-5.2c-1.1 0-2 .9-2 2s.9 2 2 2h5.2c1.1 0 2-.9 2-2s-.9-2-2-2m0 0h-5.2c-1.1 0-2 .9-2 2s.9 2 2 2h5.2c1.1 0 2-.9 2-2s-.9-2-2-2m0 10.1h-17c-1.1 0-2 .9-2 2s.9 2 2 2h17c1.1 0 2-.9 2-2s-.9-2-2-2m0-20.3H65.6c-1.1 0-2 .9-2 2s.9 2 2 2h20.8c1.1 0 2-.9 2-2s-.9-2-2-2M61.3 88.7H49.5c-1 0-1.8.7-2 1.6v.4c0 .7.4 1.3.9 1.7.3.2.7.3 1.1.3h11.9c1.1 0 1.9-.9 1.9-2s-.9-2-2-2m11.9-10.1H49.5c-1.1 0-2 .9-2 2s.9 2 2 2h23.7c1.1 0 2-.9 2-2s-.9-2-2-2M57.6 68.4h-8.1c-1.1 0-2 .9-2 2 0 .4.1.8.4 1.2.3.5.9.8 1.6.8h8.1c1.1 0 2-.9 2-2s-.9-2-2-2M37.9 45.9v29.6c.7 0 1.3 0 2-.1V46c-.7 0-1.3-.1-2-.1m19.7 22.5h-8.1c-1.1 0-2 .9-2 2 0 .4.1.8.4 1.2.3.5.9.8 1.6.8h8.1c1.1 0 2-.9 2-2s-.9-2-2-2M79 44h-1.9v-2.1c0-5-4.1-9.1-9.1-9.1-4 0-7.3 2.5-8.6 6l2.6 2.6h.9c.3-2.5 2.5-4.5 5.1-4.5 2.8 0 5.1 2.3 5.1 5.1v2h-6.4c.8 1.8 1.2 3 1.7 4h8.5v10.2h-18V48h7.3L65 45.2l-3.5.2q-.9 0-1.5-.6l-.8-.8-.3-.3v.3H57c-1.1 0-2 .9-2 2v14.2c0 1 .7 1.8 1.7 2H79c1.1 0 2-.9 2-2V46c0-1.1-.9-2-2-2m-5.8 34.6H49.5c-1.1 0-2 .9-2 2s.9 2 2 2h23.7c1.1 0 2-.9 2-2s-.9-2-2-2M61.3 88.7H49.5c-1 0-1.8.7-2 1.6v.4c0 .7.4 1.3.9 1.7.3.2.7.3 1.1.3h11.9c1.1 0 1.9-.9 1.9-2s-.9-2-2-2m25.1-20.3H65.6c-1.1 0-2 .9-2 2s.9 2 2 2h20.8c1.1 0 2-.9 2-2s-.9-2-2-2m0 20.3h-17c-1.1 0-2 .9-2 2s.9 2 2 2h17c1.1 0 2-.9 2-2s-.9-2-2-2m0-10.1h-5.2c-1.1 0-2 .9-2 2s.9 2 2 2h5.2c1.1 0 2-.9 2-2s-.9-2-2-2m0 0h-5.2c-1.1 0-2 .9-2 2s.9 2 2 2h5.2c1.1 0 2-.9 2-2s-.9-2-2-2m0 10.1h-17c-1.1 0-2 .9-2 2s.9 2 2 2h17c1.1 0 2-.9 2-2s-.9-2-2-2m0-20.3H65.6c-1.1 0-2 .9-2 2s.9 2 2 2h20.8c1.1 0 2-.9 2-2s-.9-2-2-2M61.3 88.7H49.5c-1 0-1.8.7-2 1.6v.4c0 .7.4 1.3.9 1.7.3.2.7.3 1.1.3h11.9c1.1 0 1.9-.9 1.9-2s-.9-2-2-2m11.9-10.1H49.5c-1.1 0-2 .9-2 2s.9 2 2 2h23.7c1.1 0 2-.9 2-2s-.9-2-2-2M57.6 68.4h-8.1c-1.1 0-2 .9-2 2 0 .4.1.8.4 1.2.3.5.9.8 1.6.8h8.1c1.1 0 2-.9 2-2s-.9-2-2-2M37.9 45.9v29.6c.7 0 1.3 0 2-.1V46c-.7 0-1.3-.1-2-.1m19.7 22.5h-8.1c-1.1 0-2 .9-2 2 0 .4.1.8.4 1.2.3.5.9.8 1.6.8h8.1c1.1 0 2-.9 2-2s-.9-2-2-2M79 44h-1.9v-2.1c0-5-4.1-9.1-9.1-9.1-4 0-7.3 2.5-8.6 6l2.6 2.6h.9c.3-2.5 2.5-4.5 5.1-4.5 2.8 0 5.1 2.3 5.1 5.1v2h-6.4c.8 1.8 1.2 3 1.7 4h8.5v10.2h-18V48h7.3L65 45.2l-3.5.2q-.9 0-1.5-.6l-.8-.8-.3-.3v.3H57c-1.1 0-2 .9-2 2v14.2c0 1 .7 1.8 1.7 2H79c1.1 0 2-.9 2-2V46c0-1.1-.9-2-2-2m-5.8 34.6H49.5c-1.1 0-2 .9-2 2s.9 2 2 2h23.7c1.1 0 2-.9 2-2s-.9-2-2-2M61.3 88.7H49.5c-1 0-1.8.7-2 1.6v.4c0 .7.4 1.3.9 1.7.3.2.7.3 1.1.3h11.9c1.1 0 1.9-.9 1.9-2s-.9-2-2-2m25.1-20.3H65.6c-1.1 0-2 .9-2 2s.9 2 2 2h20.8c1.1 0 2-.9 2-2s-.9-2-2-2m0 20.3h-17c-1.1 0-2 .9-2 2s.9 2 2 2h17c1.1 0 2-.9 2-2s-.9-2-2-2m0-10.1h-5.2c-1.1 0-2 .9-2 2s.9 2 2 2h5.2c1.1 0 2-.9 2-2s-.9-2-2-2m0 0h-5.2c-1.1 0-2 .9-2 2s.9 2 2 2h5.2c1.1 0 2-.9 2-2s-.9-2-2-2m0 10.1h-17c-1.1 0-2 .9-2 2s.9 2 2 2h17c1.1 0 2-.9 2-2s-.9-2-2-2m0-20.3H65.6c-1.1 0-2 .9-2 2s.9 2 2 2h20.8c1.1 0 2-.9 2-2s-.9-2-2-2M61.3 88.7H49.5c-1 0-1.8.7-2 1.6v.4c0 .7.4 1.3.9 1.7.3.2.7.3 1.1.3h11.9c1.1 0 1.9-.9 1.9-2s-.9-2-2-2m11.9-10.1H49.5c-1.1 0-2 .9-2 2s.9 2 2 2h23.7c1.1 0 2-.9 2-2s-.9-2-2-2M57.6 68.4h-8.1c-1.1 0-2 .9-2 2 0 .4.1.8.4 1.2.3.5.9.8 1.6.8h8.1c1.1 0 2-.9 2-2s-.9-2-2-2M37.9 45.9v29.6c.7 0 1.3 0 2-.1V46c-.7 0-1.3-.1-2-.1m11.6 42.8c-1 0-1.8.7-2 1.6l3.8-1.6zm8.1-20.3h-8.1c-1.1 0-2 .9-2 2 0 .4.1.8.4 1.2.3.5.9.8 1.6.8h8.1c1.1 0 2-.9 2-2s-.9-2-2-2M79 44h-1.9v-2.1c0-5-4.1-9.1-9.1-9.1-4 0-7.3 2.5-8.6 6l2.6 2.6h.9c.3-2.5 2.5-4.5 5.1-4.5 2.8 0 5.1 2.3 5.1 5.1v2h-6.4c.8 1.8 1.2 3 1.7 4h8.5v10.2h-18V48h7.3L65 45.2l-3.5.2q-.9 0-1.5-.6l-.8-.8-.3-.3v.3H57c-1.1 0-2 .9-2 2v14.2c0 1 .7 1.8 1.7 2H79c1.1 0 2-.9 2-2V46c0-1.1-.9-2-2-2m-5.8 34.6H49.5c-1.1 0-2 .9-2 2s.9 2 2 2h23.7c1.1 0 2-.9 2-2s-.9-2-2-2M61.3 88.7h-3.9v.3c0 .8-.5 1.6-1.2 1.9l-4.3 1.8h9.5c1.1 0 1.9-.9 1.9-2s-.9-2-2-2m25.1-20.3H65.6c-1.1 0-2 .9-2 2s.9 2 2 2h20.8c1.1 0 2-.9 2-2s-.9-2-2-2m0 20.3h-17c-1.1 0-2 .9-2 2s.9 2 2 2h17c1.1 0 2-.9 2-2s-.9-2-2-2m0-10.1h-5.2c-1.1 0-2 .9-2 2s.9 2 2 2h5.2c1.1 0 2-.9 2-2s-.9-2-2-2m0 0h-5.2c-1.1 0-2 .9-2 2s.9 2 2 2h5.2c1.1 0 2-.9 2-2s-.9-2-2-2m0 10.1h-17c-1.1 0-2 .9-2 2s.9 2 2 2h17c1.1 0 2-.9 2-2s-.9-2-2-2M73.2 78.6H49.5c-1.1 0-2 .9-2 2s.9 2 2 2h23.7c1.1 0 2-.9 2-2s-.9-2-2-2m13.2-10.2H65.6c-1.1 0-2 .9-2 2s.9 2 2 2h20.8c1.1 0 2-.9 2-2s-.9-2-2-2m-28.8 0h-8.1c-1.1 0-2 .9-2 2 0 .4.1.8.4 1.2.3.5.9.8 1.6.8h8.1c1.1 0 2-.9 2-2s-.9-2-2-2M37.9 45.9v29.6c.7 0 1.3 0 2-.1V46c-.7 0-1.3-.1-2-.1m11.6 42.8c-1 0-1.8.7-2 1.6l3.8-1.6zm8.1-20.3h-8.1c-1.1 0-2 .9-2 2 0 .4.1.8.4 1.2.3.5.9.8 1.6.8h8.1c1.1 0 2-.9 2-2s-.9-2-2-2M79 44h-1.9v-2.1c0-5-4.1-9.1-9.1-9.1-4 0-7.3 2.5-8.6 6l2.6 2.6h.9c.3-2.5 2.5-4.5 5.1-4.5 2.8 0 5.1 2.3 5.1 5.1v2h-6.4c.8 1.8 1.2 3 1.7 4h8.5v10.2h-18V48h7.3L65 45.2l-3.5.2q-.9 0-1.5-.6l-.8-.8-.3-.3v.3H57c-1.1 0-2 .9-2 2v14.2c0 1 .7 1.8 1.7 2H79c1.1 0 2-.9 2-2V46c0-1.1-.9-2-2-2m-5.8 34.6H49.5c-1.1 0-2 .9-2 2s.9 2 2 2h23.7c1.1 0 2-.9 2-2s-.9-2-2-2M61.3 88.7h-3.9v.3c0 .8-.5 1.6-1.2 1.9l-4.3 1.8h9.5c1.1 0 1.9-.9 1.9-2s-.9-2-2-2m25.1-20.3H65.6c-1.1 0-2 .9-2 2s.9 2 2 2h20.8c1.1 0 2-.9 2-2s-.9-2-2-2m0 20.3h-17c-1.1 0-2 .9-2 2s.9 2 2 2h17c1.1 0 2-.9 2-2s-.9-2-2-2m0-10.1h-5.2c-1.1 0-2 .9-2 2s.9 2 2 2h5.2c1.1 0 2-.9 2-2s-.9-2-2-2m0 0h-5.2c-1.1 0-2 .9-2 2s.9 2 2 2h5.2c1.1 0 2-.9 2-2s-.9-2-2-2m0 10.1h-17c-1.1 0-2 .9-2 2s.9 2 2 2h17c1.1 0 2-.9 2-2s-.9-2-2-2m0-20.3H65.6c-1.1 0-2 .9-2 2s.9 2 2 2h20.8c1.1 0 2-.9 2-2s-.9-2-2-2m-28.8 0h-8.1c-1.1 0-2 .9-2 2 0 .4.1.8.4 1.2.3.5.9.8 1.6.8h8.1c1.1 0 2-.9 2-2s-.9-2-2-2M37.9 45.9v29.6c.7 0 1.3 0 2-.1V46c-.7 0-1.3-.1-2-.1m11.6 42.8c-1 0-1.8.7-2 1.6l3.8-1.6zm8.1-20.3h-8.1c-1.1 0-2 .9-2 2 0 .4.1.8.4 1.2.3.5.9.8 1.6.8h8.1c1.1 0 2-.9 2-2s-.9-2-2-2M79 44h-1.9v-2.1c0-5-4.1-9.1-9.1-9.1-4 0-7.3 2.5-8.6 6l2.6 2.6h.9c.3-2.5 2.5-4.5 5.1-4.5 2.8 0 5.1 2.3 5.1 5.1v2h-6.4c.8 1.8 1.2 3 1.7 4h8.5v10.2h-18V48h7.3L65 45.2l-3.5.2q-.9 0-1.5-.6l-.8-.8-.3-.3v.3H57c-1.1 0-2 .9-2 2v14.2c0 1 .7 1.8 1.7 2H79c1.1 0 2-.9 2-2V46c0-1.1-.9-2-2-2m-5.8 34.6H49.5c-1.1 0-2 .9-2 2s.9 2 2 2h23.7c1.1 0 2-.9 2-2s-.9-2-2-2M61.3 88.7h-3.9v.3c0 .8-.5 1.6-1.2 1.9l-4.3 1.8h9.5c1.1 0 1.9-.9 1.9-2s-.9-2-2-2m25.1-20.3H65.6c-1.1 0-2 .9-2 2s.9 2 2 2h20.8c1.1 0 2-.9 2-2s-.9-2-2-2m0 20.3h-17c-1.1 0-2 .9-2 2s.9 2 2 2h17c1.1 0 2-.9 2-2s-.9-2-2-2m0-10.1h-5.2c-1.1 0-2 .9-2 2s.9 2 2 2h5.2c1.1 0 2-.9 2-2s-.9-2-2-2m0 0h-5.2c-1.1 0-2 .9-2 2s.9 2 2 2h5.2c1.1 0 2-.9 2-2s-.9-2-2-2m0 10.1h-17c-1.1 0-2 .9-2 2s.9 2 2 2h17c1.1 0 2-.9 2-2s-.9-2-2-2m0-20.3H65.6c-1.1 0-2 .9-2 2s.9 2 2 2h20.8c1.1 0 2-.9 2-2s-.9-2-2-2m-28.8 0h-8.1c-1.1 0-2 .9-2 2 0 .4.1.8.4 1.2.3.5.9.8 1.6.8h8.1c1.1 0 2-.9 2-2s-.9-2-2-2"></path><path d="M37.9 45.9v29.6c.7 0 1.3 0 2-.1V46c-.7 0-1.3-.1-2-.1m0 0v29.6c.7 0 1.3 0 2-.1V46c-.7 0-1.3-.1-2-.1m0 0v29.6c.7 0 1.3 0 2-.1V46c-.7 0-1.3-.1-2-.1m0 0v29.6c.7 0 1.3 0 2-.1V46c-.7 0-1.3-.1-2-.1m0 0v29.6c.7 0 1.3 0 2-.1V46c-.7 0-1.3-.1-2-.1m0 0v29.6c.7 0 1.3 0 2-.1V46c-.7 0-1.3-.1-2-.1m0 0v29.6c.7 0 1.3 0 2-.1V46c-.7 0-1.3-.1-2-.1m0 0v29.6c.7 0 1.3 0 2-.1V46c-.7 0-1.3-.1-2-.1m0 0v29.6c.7 0 1.3 0 2-.1V46c-.7 0-1.3-.1-2-.1m61.9-8.4c0-.1-.1-.2-.2-.2l-.3-.3-16.7-16.9c-.4-.4-.9-.6-1.4-.6H37.9c-1.1 0-2 .9-2 2v80.6c0 1.1.9 2 2 2H98c1.1 0 2-.9 2-2V38.3c0-.3-.1-.6-.2-.8M96 100.1H39.9V23.5h40.5l.8.8L96 39.1zM37.9 45.9v29.6c.7 0 1.3 0 2-.1V46c-.7 0-1.3-.1-2-.1m0 0v29.6c.7 0 1.3 0 2-.1V46c-.7 0-1.3-.1-2-.1m0 0v29.6c.7 0 1.3 0 2-.1V46c-.7 0-1.3-.1-2-.1m0 0v29.6c.7 0 1.3 0 2-.1V46c-.7 0-1.3-.1-2-.1m0 0v29.6c.7 0 1.3 0 2-.1V46c-.7 0-1.3-.1-2-.1m0 0v29.6c.7 0 1.3 0 2-.1V46c-.7 0-1.3-.1-2-.1m0 0v29.6c.7 0 1.3 0 2-.1V46c-.7 0-1.3-.1-2-.1m0 0v29.6c.7 0 1.3 0 2-.1V46c-.7 0-1.3-.1-2-.1"></path><path d="M81.2 21.5v16.8H98zm2 14.8v-10l10 10z"></path><path d="M99.8 37.5c0-.1-.1-.2-.2-.2l-.3-.3-16.7-16.9c-.6-.5-1.5-.7-2.2-.4s-1.2 1-1.2 1.8v16.8c0 1.1.9 2 2 2H98c.8 0 1.5-.5 1.8-1.2.2-.6.2-1.1 0-1.6m-16.6-1.2v-10l10 10zM120.3 104.2c-.2.2-.4.5-.5.8l-1.9-.8-.7-.3-1.2-.5c.1-.2.1-.3.2-.5l-4.9-4.9h-8.5l-2.9-1.2-2-.8h14.2l6.7 6.7z"></path><path d="M122.4 103.5h-.4c-.6 0-1.2.2-1.7.7-.2.2-.4.5-.5.8-.2.4-.2.9-.1 1.4l-1.8-1.9-.5-.5-1-1-4.9-4.9H98c-1.1 0-2-.9-2-2s.9-2 2-2h14.2c.5 0 1 .2 1.4.6l5.5 5.5zM120.3 36.3l-1.5 1.5-6.7 6.7H98l2-.8 2.9-1.2h8.5l4.9-4.9c-.1-.2-.2-.3-.2-.5l1.2-.5.7-.3 1.9-.8c0 .3.2.6.4.8"></path><path d="m122.6 36.9-2 2-1.5 1.5-5.5 5.5c-.3.3-.9.6-1.4.6H98c-1.1 0-2-.9-2-2s.9-2 2-2h13.4l4.9-4.9.9-.9.5-.6 1.8-1.8c-.1.5 0 .9.2 1.3.1.3.3.5.5.7.7.6 1.6.8 2.4.6M98 57.4h8.1M106.1 59.4H98c-1.1 0-2-.9-2-2s.9-2 2-2h8.1c1.1 0 2 .9 2 2s-.9 2-2 2M98 83.3h8.1M106.1 85.3H98c-1.1 0-2-.9-2-2s.9-2 2-2h8.1c1.1 0 2 .9 2 2s-.9 2-2 2M120.7 72.4H98c-1.1 0-2-.9-2-2s.9-2 2-2h22.7c-.1.1-.2.2-.4.3-.5.4-.7 1.1-.7 1.7s.2 1.2.7 1.7c.1.1.2.2.4.3M124.3 71c.1-.4.1-.9 0-1.3.1.2.1.4.1.6 0 .3-.1.5-.1.7"></path><path d="M122 30.3c-2.4 0-4.4 2-4.4 4.4 0 .5.1.9.2 1.4 0 .1.1.2.1.3.2.5.5 1 1 1.5s1.1.8 1.7 1.1c.4.1.9.2 1.4.2 2.4 0 4.4-2 4.4-4.4 0-2.5-2-4.5-4.4-4.5m1.7 6c-.3.3-.7.5-1.1.6-.8.2-1.6 0-2.2-.6-.2-.2-.4-.5-.5-.7-.2-.4-.2-.9-.2-1.3.1-.5.3-1 .6-1.3.4-.4 1.1-.7 1.7-.7.7 0 1.3.3 1.7.7.9.8.9 2.4 0 3.3"></path><path d="M126.5 30.1c-1.2-1.2-2.8-1.9-4.5-1.9s-3.3.7-4.5 1.9c-1.9 1.9-2.4 4.7-1.4 7 .1.2.1.3.2.5.3.6.7 1.1 1.2 1.6s1 .9 1.6 1.2c.9.5 1.9.7 2.9.7 1.7 0 3.4-.7 4.5-1.9 1.2-1.2 1.9-2.9 1.9-4.6 0-1.6-.7-3.3-1.9-4.5m-2.8 6.2c-.3.3-.7.5-1.1.6-.8.2-1.6 0-2.2-.6-.2-.2-.4-.5-.5-.7-.2-.4-.2-.9-.2-1.3.1-.5.3-1 .6-1.3.4-.4 1.1-.7 1.7-.7.7 0 1.3.3 1.7.7.9.8.9 2.4 0 3.3M122 66c-1.7 0-3.2 1-3.9 2.4-.3.6-.5 1.3-.5 2s.2 1.4.5 2c.7 1.4 2.2 2.4 3.9 2.4 2.4 0 4.4-2 4.4-4.4s-2-4.4-4.4-4.4m2.3 5.1c-.1.4-.3.7-.6 1-.8.8-2.1.9-3 .3-.1-.1-.3-.2-.4-.3-.5-.5-.7-1.1-.7-1.7s.2-1.2.7-1.7c.1-.1.2-.2.4-.3.4-.3.9-.4 1.3-.4.6 0 1.3.2 1.7.7.2.3.4.6.5.9v.1c.2.5.2.9.1 1.4"></path><path d="M126.6 65.8c-2.5-2.5-6.6-2.5-9.1 0-.8.8-1.3 1.7-1.6 2.6-.2.7-.3 1.3-.3 2s.1 1.4.3 2c.3.9.8 1.8 1.5 2.5 1.2 1.3 2.9 1.9 4.5 1.9 1.7 0 3.3-.6 4.6-1.9 1.2-1.2 1.9-2.9 1.9-4.5.1-1.7-.6-3.4-1.8-4.6m-5.9 6.6c-.1-.1-.3-.2-.4-.3-.5-.5-.7-1.1-.7-1.7s.2-1.2.7-1.7c.1-.1.2-.2.4-.3.4-.3.9-.4 1.3-.4.6 0 1.3.2 1.7.7.2.3.4.6.5.9v.1c.1.4.1.9 0 1.3s-.3.7-.6 1c-.7.9-2 1-2.9.4M122 101.5c-.5 0-.9.1-1.4.2-.7.2-1.3.6-1.7 1.1-.4.4-.8.9-1 1.5 0 .1-.1.2-.1.3-.1.4-.2.9-.2 1.4 0 2.4 2 4.4 4.4 4.4s4.4-2 4.4-4.4-2-4.5-4.4-4.5m1.7 6.1c-.9.9-2.5.9-3.4 0-.3-.3-.5-.8-.6-1.2-.1-.5 0-.9.1-1.4.1-.3.3-.6.5-.8.5-.5 1.1-.7 1.7-.7h.4c.5.1 1 .3 1.3.7.9.9.9 2.5 0 3.4"></path><path d="M126.6 101.3c-2-2-5.1-2.4-7.5-1.1-.6.3-1.1.7-1.5 1.1-.5.5-.9 1-1.2 1.6-.1.2-.1.3-.2.5-.9 2.3-.4 5.1 1.4 6.9 1.2 1.3 2.9 1.9 4.5 1.9 1.7 0 3.3-.6 4.6-1.9 1.2-1.2 1.9-2.9 1.9-4.5-.1-1.6-.8-3.3-2-4.5m-2.9 6.3c-.9.9-2.5.9-3.4 0-.3-.3-.5-.8-.6-1.2-.1-.5 0-.9.1-1.4.1-.3.3-.6.5-.8.5-.5 1.1-.7 1.7-.7h.4c.5.1 1 .3 1.3.7.9.9.9 2.5 0 3.4M88.4 70.4c0 1.1-.9 2-2 2H65.6c-1.1 0-2-.9-2-2s.9-2 2-2h20.8c1.1 0 2 .9 2 2M59.6 70.4c0 1.1-.9 2-2 2h-8.1c-.7 0-1.3-.3-1.6-.8-.2-.3-.4-.7-.4-1.2 0-1.1.9-2 2-2h8.1c1.1 0 2 .9 2 2M88.4 80.6c0 1.1-.9 2-2 2h-5.2c-1.1 0-2-.9-2-2s.9-2 2-2h5.2c1.1 0 2 .9 2 2M75.2 80.6c0 1.1-.9 2-2 2H49.5c-1.1 0-2-.9-2-2s.9-2 2-2h23.7c1.1 0 2 .9 2 2M88.4 90.7c0 1.1-.9 2-2 2h-17c-1.1 0-2-.9-2-2s.9-2 2-2h17c1.1 0 2 .9 2 2M63.3 90.7c0 1.1-.8 2-1.9 2H49.5c-.4 0-.8-.1-1.1-.3-.5-.4-.9-1-.9-1.7v-.4c.2-.9 1-1.6 2-1.6h11.8c1.1 0 2 .9 2 2M79 44H57c-1.1 0-2 .9-2 2v14.2c0 1 .7 1.8 1.7 2H79c1.1 0 2-.9 2-2V46c0-1.1-.9-2-2-2m-2.1 14.2h-18V48h18z"></path><path d="M68 32.8c-4 0-7.3 2.5-8.6 6-.2.5-.3 1-.4 1.5 0 .2-.1.3-.1.5V46c0 1.1.9 2 2 2h14.2c1.1 0 2-.9 2-2v-4.1c0-5-4.1-9.1-9.1-9.1M62.9 44v-2.6c.3-2.5 2.5-4.5 5.1-4.5 2.8 0 5.1 2.3 5.1 5.1v2z"></path></svg>