<svg xmlns="http://www.w3.org/2000/svg" xml:space="preserve" fill="currentColor" viewBox="0 0 60 60" class="cOSi3DCpwAQQBvBr4kWR"><path d="M35 0C23.849 0 14.43 2.588 11.215 6.475 4.669 8.077.884 10.775.146 13.51A1 1 0 0 0 0 14v37a.94.94 0 0 0 .117.451C1.298 56.346 11.864 60 25 60c11.24 0 20.579-2.68 23.786-6.518 6.359-1.546 10.366-4.076 11.09-7A1 1 0 0 0 60 46V9.5C60 4.895 51.238 0 35 0m12.805 39.348q-.061.148-.143.297a3.4 3.4 0 0 1-.45.646 5 5 0 0 1-.363.392q-.123.118-.26.236a8 8 0 0 1-.526.426q-.125.09-.257.18c-.226.156-.462.311-.721.463q-.104.06-.212.12a17 17 0 0 1-.945.497q-.065.031-.132.061c-.375.177-.767.351-1.186.519l-.036.014c-2.271.907-5.176 1.67-8.561 2.17l-.051.007a55 55 0 0 1-2.026.259c-.113.012-.232.02-.346.032-.605.063-1.217.121-1.847.167-.288.021-.59.031-.883.049-.474.028-.943.059-1.429.076q-1.19.04-2.431.041c-1.241.001-1.637-.016-2.432-.044-.486-.017-.955-.049-1.429-.076-.293-.017-.595-.028-.883-.049a60 60 0 0 1-1.847-.167c-.114-.012-.233-.02-.346-.032a57 57 0 0 1-2.026-.259l-.051-.007c-3.385-.5-6.29-1.263-8.561-2.17l-.036-.014a21 21 0 0 1-1.186-.519q-.066-.031-.132-.061a16 16 0 0 1-.945-.497c-.07-.04-.144-.079-.212-.12a12 12 0 0 1-.721-.463c-.086-.06-.175-.119-.257-.18a8 8 0 0 1-.526-.426c-.089-.078-.179-.156-.26-.236a5 5 0 0 1-.363-.392 3.729 3.729 0 0 1-.45-.646 2.423 2.423 0 0 1-.259-.66C2.041 38.823 2 38.661 2 38.5q.002-.17.031-.338A1 1 0 0 0 2 37.717v-7.424c.028.026.063.051.092.077.218.192.44.383.69.567C6.549 33.786 14.082 36 25 36c10.872 0 18.386-2.196 22.169-5.028.302-.22.574-.447.83-.678l.001-.001v7.424a1 1 0 0 0-.031.445q.029.168.031.338c0 .161-.041.323-.079.485a2.5 2.5 0 0 1-.116.363M2.601 18.797q.45.355.975.696c.073.047.155.093.231.14a17 17 0 0 0 1.299.731q.547.28 1.151.542c.066.029.126.059.193.087.469.199.967.389 1.485.573.143.051.293.099.44.149q.618.208 1.279.401c.159.046.315.094.478.138.585.162 1.189.316 1.823.458.087.02.181.036.269.055a46 46 0 0 0 2.348.445q.851.14 1.75.256c.154.02.301.043.457.062q1.117.135 2.305.233c.195.016.398.028.596.042q.95.069 1.942.114.36.017.727.031c.863.029 1.741.05 2.651.05s1.788-.021 2.65-.05q.366-.014.727-.031.993-.045 1.942-.114c.198-.015.4-.026.596-.042a60 60 0 0 0 2.305-.233c.156-.019.303-.042.457-.062a54 54 0 0 0 2.363-.36 46 46 0 0 0 1.735-.341c.088-.019.182-.036.269-.055a39 39 0 0 0 1.823-.458c.163-.045.319-.092.478-.138a33 33 0 0 0 1.279-.401c.147-.05.297-.098.44-.149a26 26 0 0 0 1.485-.573c.067-.028.127-.058.193-.087a21 21 0 0 0 1.518-.735q.49-.262.932-.538c.076-.047.158-.093.231-.14q.526-.34.975-.696c.075-.06.142-.12.215-.18.13-.108.267-.215.387-.324v7.424a1 1 0 0 0-.031.445q.029.168.031.338c0 .161-.041.323-.079.485a2.5 2.5 0 0 1-.259.66 3.4 3.4 0 0 1-.45.646 5 5 0 0 1-.363.392q-.123.118-.26.236a8 8 0 0 1-.526.426q-.125.09-.257.18c-.226.156-.462.311-.721.463q-.104.06-.212.12a17 17 0 0 1-.945.497q-.065.031-.132.061c-.375.177-.767.351-1.186.519l-.036.014c-2.271.907-5.176 1.67-8.561 2.17l-.051.007a55 55 0 0 1-2.026.259c-.113.012-.232.02-.346.032-.605.063-1.217.121-1.847.167-.288.021-.59.031-.883.049-.474.028-.943.059-1.429.076q-1.19.04-2.431.041c-1.241.001-1.637-.016-2.432-.044-.486-.017-.955-.049-1.429-.076-.293-.017-.595-.028-.883-.049a60 60 0 0 1-1.847-.167c-.114-.012-.233-.02-.346-.032a57 57 0 0 1-2.026-.259l-.051-.007c-3.385-.5-6.29-1.263-8.561-2.17l-.036-.014a21 21 0 0 1-1.186-.519q-.066-.031-.132-.061a16 16 0 0 1-.945-.497c-.07-.04-.144-.079-.212-.12a12 12 0 0 1-.721-.463c-.086-.06-.175-.119-.257-.18a8 8 0 0 1-.526-.426c-.089-.078-.179-.156-.26-.236a5 5 0 0 1-.363-.392 3.729 3.729 0 0 1-.45-.646 2.423 2.423 0 0 1-.259-.66C2.041 26.823 2 26.661 2 26.5q.002-.17.031-.338A1 1 0 0 0 2 25.717v-7.424c.12.109.257.216.387.324.072.06.139.12.214.18M50 39.09v-9.918l.126-.037q.6-.168 1.168-.346l.013-.004c2.961-.936 5.22-2.099 6.693-3.427V33.5a2.331 2.331 0 0 1-.107.637q-.012.042-.025.085-.054.157-.133.315l-.019.039c-.828 1.615-3.465 3.202-7.27 4.379q-.22.068-.446.135m8-25.743V21.5a2.331 2.331 0 0 1-.107.637q-.012.042-.025.085-.054.157-.133.315l-.019.039c-.828 1.615-3.465 3.202-7.27 4.379q-.22.068-.446.135v-9.918c.084-.023.161-.049.244-.072q.344-.099.677-.2.285-.085.561-.174.34-.111.667-.227c.166-.058.334-.115.495-.174.231-.085.452-.174.673-.262.137-.055.279-.108.412-.164.256-.108.5-.219.742-.332.087-.04.179-.079.263-.119q.486-.234.931-.479c.031-.017.057-.035.088-.052q.393-.219.751-.447c.084-.054.159-.109.24-.163.176-.117.35-.235.512-.356.089-.066.169-.134.253-.201.141-.112.282-.224.411-.338.026-.023.056-.043.08-.065M35 2c13.555 0 23 3.952 23 7.5q0 .2-.04.399c-.008.044-.025.087-.036.131-.023.09-.045.179-.079.269-.02.052-.047.104-.07.156-.037.081-.073.162-.119.243q-.048.083-.103.165-.073.117-.157.233-.064.084-.135.167a5 5 0 0 1-.197.227q-.079.084-.164.168a6 6 0 0 1-.428.389q-.132.11-.275.219-.106.082-.218.163-.153.11-.316.217-.118.079-.241.158-.175.11-.36.216-.126.075-.258.149-.2.11-.412.219c-.089.046-.175.093-.267.138-.153.076-.315.15-.476.225-.088.04-.171.081-.261.121q-.32.141-.659.278l-.131.055a27 27 0 0 1-.85.321c-.081.029-.168.057-.25.085-.214.074-.428.148-.651.22-.116.038-.238.073-.357.11q-.24.075-.487.147V14a.9.9 0 0 0-.065-.322q-.02-.06-.046-.115-.002-.007-.006-.014c-.284-1.177-1.122-2.279-2.396-3.279q-.01-.01-.021-.017c-.182-.143-.385-.28-.585-.418-3.547-2.511-10.075-4.479-19.335-4.786A69 69 0 0 0 25 5q-1.281 0-2.545.048a63 63 0 0 0-6.884.594C19.445 3.612 26.273 2 35 2M13.493 8.061c.252-.05.512-.094.769-.141a45 45 0 0 1 1.914-.312 57 57 0 0 1 1.028-.136q.44-.057.885-.107a59 59 0 0 1 1.833-.17c.237-.019.478-.031.717-.047q.724-.049 1.47-.081.352-.016.707-.028A71 71 0 0 1 25 7q1.24.001 2.433.044c.48.017.943.048 1.411.075.3.017.607.029.902.05.621.045 1.224.103 1.821.164.123.012.252.021.374.035q1.015.111 1.98.253l.1.013c3.369.498 6.261 1.256 8.526 2.157l.077.03c.406.163.786.332 1.149.503l.169.078c.325.157.625.318.914.48.08.045.164.09.241.136.249.147.477.296.696.447a7.92 7.92 0 0 1 .787.608 5.289 5.289 0 0 1 .855.918 3.4 3.4 0 0 1 .371.663q.072.179.114.358c.039.164.08.326.08.488 0 3.548-9.445 7.5-23 7.5S2 18.048 2 14.5c0-2.42 4.399-5.025 11.493-6.439M25 58c-13.036 0-22.401-3.703-22.968-7.162A1 1 0 0 0 2 50.707v-8.414c.028.026.063.051.092.077.218.192.44.383.69.567C6.549 45.786 14.082 48 25 48c10.872 0 18.386-2.196 22.169-5.028.302-.22.574-.447.83-.678l.001-.001v8.41a1 1 0 0 0-.032.135 2.4 2.4 0 0 1-.196.613c-.036.079-.092.158-.137.237C45.826 54.877 36.971 58 25 58m32.968-12.162c-.317 1.941-3.314 3.891-7.972 5.255A1 1 0 0 0 50 51v-9.828l.126-.037q.6-.168 1.168-.346l.013-.004c2.961-.936 5.22-2.099 6.693-3.427v8.346a1 1 0 0 0-.032.134"></path></svg>