<svg xmlns="http://www.w3.org/2000/svg" fill="currentColor" viewBox="0 0 512 512" class="xfjz2zlx8aVp2KwXVJ9H"><path d="M288 240a8 8 0 0 0-8 8 24 24 0 0 1-48 0 8 8 0 0 0-16 0 40 40 0 0 0 80 0 8 8 0 0 0-8-8"></path><path d="M256 16C123.055 16 16 173.555 16 304c0 120.223 89.719 192 240 192s240-71.777 240-192c0-130.445-107.055-288-240-288m0 16c73.358 0 138.265 52.017 179.078 120H400a8 8 0 0 0-8-8H280a8 8 0 0 0-8 8h-32a8 8 0 0 0-8-8H120a8 8 0 0 0-8 8H76.922C117.735 84.017 182.642 32 256 32m32 136v-8h29.394l-11.757 41.149A39.99 39.99 0 0 1 288 168m46.035-8h15.719l-12 48H328a40 40 0 0 1-7.477-.711Zm32.211 0H384v8a40.064 40.064 0 0 1-29.395 38.562Zm-220.492 0 11.64 46.562A40.065 40.065 0 0 1 128 168v-8Zm28.492 48-12-48h15.719l13.512 47.289A40 40 0 0 1 184 208Zm32.117-6.851L194.606 160H224v8a39.99 39.99 0 0 1-17.637 33.149M256 480c-140.258 0-224-65.793-224-176 0-44.743 13.189-92.858 35.919-136H112a56.063 56.063 0 0 0 55.869 56H184a56.064 56.064 0 0 0 56-56h32a56.063 56.063 0 0 0 56 56h16a56.063 56.063 0 0 0 56-56h44.081C466.811 211.142 480 259.257 480 304c0 110.207-83.742 176-224 176"></path></svg>