<svg xmlns="http://www.w3.org/2000/svg" xml:space="preserve" fill="currentColor" viewBox="0 0 55 55" class="TP2W8nAv1_wemY_KsmOF undefined"><path d="M22.019 25.877a1 1 0 0 0 1.018-.033l11-7a1.002 1.002 0 0 0 0-1.688l-11-7a1 1 0 0 0-1.019-.033A1 1 0 0 0 21.5 11v14c0 .365.199.701.519.877M23.5 12.821 31.638 18 23.5 23.179z"></path><path d="M.5 0v55h54V0zm52 2v33h-50V2zm-50 51V37h50v16z"></path><path d="M47.5 44h-24v-2a1 1 0 1 0-2 0v2h-4a1 1 0 1 0 0 2h4v2a1 1 0 1 0 2 0v-2h24a1 1 0 1 0 0-2M7.5 41a1 1 0 0 0-1 1v6a1 1 0 1 0 2 0v-6a1 1 0 0 0-1-1M11.5 41a1 1 0 0 0-1 1v6a1 1 0 1 0 2 0v-6a1 1 0 0 0-1-1"></path></svg>